<?xml version="1.0" encoding="UTF-8"?>
<svg version="1.1" viewBox="0 0 1676 1520" width="1280" height="1280" xmlns="http://www.w3.org/2000/svg">
<circle cx="838" cy="760" r="760" fill="#F7F4F7"/>
<path transform="translate(0)" d="m0 0h1676v1520h-1676z" fill="#F7F4F7"/>
<path transform="translate(414,367)" d="m0 0 22 1 20 3 36 9 25 4 29 2h45l69 10 285 43 76 11 75 11 25 1h55l35 2 32 3 28 4 27 6 16 6 15 8 15 11 17 17 11 15 9 16 10 25 4 13 4 24 1 13v41l-2 20-4 21-5 17-9 21-13 23-3 3h-8l-2-4-5-1v5h-5l-1-4h-6v4h-5v-4h-7v4h-5l-1-4-7-1 1 5h-6l-1-4h-5v4h-6l-1-5h-6v5h-5l-2-4h-4l-1 4h-6l-1-4h-5v4h-6l-1-3-5-1v3l-6 1v-3h-7l-1 3h-4v-3h-8l-1 3h-3l-2-3h-6v3h-5l-1-3h-6v3h-5l-2-4h-5v4h-6l-1-5-2 1-2 4-7 1h-147l-2-7-2-21-1-19 2-33 1-14-7 10-3 4 1 7 1 4v11l-4 8-3 2-1 47-1 1h-6l-1-2v-41h-2v42l-5 1-2-1-1-22-1 22-8 1-1-46-6-8-2-6 1-12 2-6v-5l-6-8-1-4h3l4 5 4 2 8-16 6-9 4 1 8 13 5 10v2l3-1 7-12 7-14 2-3-1-4-1-3-5-1-7 4v-3l5-4-2-4-5-4h-3l-6 12-5 3h-5l-4-5 1-6 6-7 4-3-2-4-14-11-10-9 1 11 1 10v14l-2 10-3 9-6 12-5 16-8 11-8 7-10 5-9 1-5-1 1-2 13-3 11-8 8-11 2-5-10 7-1-2h2v-2h2l2-4 7-8 2-9v-20l-3-26-5-22-7-19-2-4 7 25 3 18 1 20-1 17-3 16-4 10-4 6-7 6-10 3-10-1-6-3-7-7-4-10 1-2 7 11 5 5 4 1h13l8-4 5-6 3-11 1-7v-26l-3-22-6-26-10-30-9-21-8-16-8-14-10-14-54-5-36-5h-5l-14 9-16 13-8 8h-2l1-11 3-6 4-5 10-7 5-3h2v-2l-20-3-46-10-39-10-48-14-23-7h-3l-4 60-1 8 5-3 9-5 3-1h16l18 4 20 7 14 7 8 11 1 3-5-1-27-11-24-9-12-3h-9l-10 3-7 2v26l4 14 2 10h5l14-15 11-7 12-3h18l12 4 9 6 9 10 1 4-8-6-5-4h-2l1 11-2 8 7-2h6l-3 2-20 7-12 5-9 2h-13l-12-3-8-3-9 1-1 22v40l2 18 4 14 15 40 6 21 5 24 4 20-10 1-2-5-5-1 2 5-6 1-3-5h-5v4h-5l-1-4h-6l-1 4h-5v-4l-7 1v3h-5v-4h-7v4h-6v-4l-7-1 1 5h-6v-4l-7-1 1 5h-6l-1-4-6-1v5h-5l-1-4-6-1v5h-6v-5h-6v5h-6v-4l-6 1v3h-6v-4h-7l1 3-1 1h-5l-1-3-6 1-1 2h-4v-3l-8 1-1 2-4-1-1-2-7-1 1 3-5 1v-4h-8v4h-4v-4h-8v4h-4l-1-4h-7v4h-5v-5l-4 1-4-1 1 5h-6l1-5h-8l1 5h-6l1-5h-8l1 5-4 1-2-1v-5h-7l1 5-6 1-2-6h-5l1 5-7 1-1-6h-5v6l-10-1-7-6-9-11-10-13-13-19-9-15-12-24-10-26-6-22-5-27-1-8-1-30 1-22 4-28 6-21 8-21 11-22 7-11 9-13 12-14 11-11 11-9 13-9 19-10 20-7 20-4z" fill="#140E14"/>
<path transform="translate(818,164)" d="m0 0h33l23 2 25 5 24 7 28 11 23 12 14 10 14 12 22 22 11 14 10 15 12 20 11 23 10 27 7 25 5 25 1 14-28-21-17-12-20-12-14-8-23-11-25-10-33-11-29-7-28-5-24-3-23-2-18-1h-34l-31 2-29 3-41 7-31 7-31 9-6 1 3-11 9-22 8-17 13-22 10-14 12-14 9-10 16-14 15-11 17-10 15-7 24-8 29-6 21-3z" fill="#140E14"/>
<path transform="translate(769,311)" d="m0 0h54l41 4 32 5 29 7 19 6 25 9 21 9 16 8 21 11 23 15 17 12 13 10 13 11 2 15 1 11v12l-12-1-48-8-95-14-121-18-93-14-117-18-19-3 1-7 9-29 2-3 30-9 33-8 37-7 33-4z" fill="#140E14"/>
<path transform="translate(1146,1019)" d="m0 0h7l3 5 15 33 13 32 13 35 14 41 13 44 11 40 13 53 10 48 2 13-1 1h-139l2-14 1-17v-13l-2-28-5-40-6-34-7-25-7-20-9-20-8-16-13-25-14-22-12-16-9-11-9-10-13-13-15-11-15-8v-1h101l14 8 14 10 16 13 20 20 10 13 11 17 12 23 10 26 15 43 20 55 13 37 3 6-17-64-16-55-14-41-11-30-15-37-20-44z" fill="#140E14"/>
<path transform="translate(907,1019)" d="m0 0 4 1v2l-17 9-18 12-14 11-16 15-12 14-11 17-8 16-5 15-3 17-2 22v41l4 46 5 38 9 50 3 15-1 4h-196v-3l10-13 12-17 13-18 10-14 36-51 13-18 36-51 13-18 10-15 10-17 12-26 7-19 6-24 4-29 1-10 1-1h7l-2 25-4 23-2 10 10-14 7-7 7-8 12-11 19-14 7-4z" fill="#140E14"/>
<path transform="translate(728,680)" d="m0 0 9 2 12 7 11 9 11 11 11 14 4 6-1 7-5 9-8 8-10 6-7 3-10 2-26 2h-12l-8-2-8-4-8-7-3-8 1-8-3-8v-17l4-13 8-11 6-4 7-1 10 2 10-4z" fill="#140E14"/>
<path transform="translate(1299,854)" d="m0 0h42l11 4 8 6 6 7 5 10 2 8v21l-4 13-4 7-8 9-14 7-18 2h-24l-1-1-1-86-1-6z" fill="#140E14"/>
<path transform="translate(735,853)" d="m0 0h23l11 4 7 5 4 10-1 9-5 9-2 2v4l8 7 4 6 1 3v13l-4 10-9 8-13 4-9 1h-21l-1-1-1-83-1-10z" fill="#140E14"/>
<path transform="translate(808,854)" d="m0 0h31l11 3 8 6 4 6 2 6v15l-5 9-5 5-5 4h-2l7 11 12 15 9 12-1 2h-15l-9-12-13-18-3-4-12-2v35l-1 1h-12l-1-5z" fill="#140E14"/>
<path transform="translate(1167,862)" d="m0 0 10 2 7 4 6 7 5 12 1 6v15l-3 13-7 11-9 6-2 1h-14l-6-3-7-6-6-12-2-7v-20l4-12 7-10 10-6z" fill="#F8F5F8"/>
<path transform="translate(1162,852)" d="m0 0h14l13 4 10 8 7 11 3 9 1 5v20l-3 12-6 11-10 10-12 6-13 2-13-2-9-5-7-6-7-11-4-13v-22l5-15 6-9 5-5 5-4 8-4zm5 10-8 2-9 6-7 11-3 10v20l4 12 6 9 8 6 3 1h14l10-6 7-10 3-9 1-6v-15l-3-12-6-10-7-6-5-2z" fill="#140E14"/>
<path transform="translate(670,852)" d="m0 0h5l11 30 15 41 6 15 3 9-1 1h-13l-5-11-4-12-1-1h-35l-7 18-3 5h-11l1-5 19-50 14-36 3-3z" fill="#140E14"/>
<path transform="translate(362,854)" d="m0 0h14v39h50l-1-39h15v93l-2 1-11-1-1-41-50-1v42l-12 1-1-1z" fill="#140E14"/>
<path transform="translate(1314,864)" d="m0 0h17l10 2 6 4 7 8 4 9 1 4v20l-3 10-6 8-7 6-5 2h-25v-72z" fill="#F8F5F8"/>
<path transform="translate(821,513)" d="m0 0h27l23 5 18 6h10l5-3h2l-2 4-4 5-11 4-9-1-14-5-5-2 1 5v8l-2 6-1 2 11-6 4-1h7l4 4-10 1-17 8-10 4-6 1h-16l-25-4-13-1v-1l6-1h25l7 1-6-10v-13l3-6-11 2-13 5-9 6-6 6-2-1 8-10 8-8 10-6z" fill="#140E14"/>
<path transform="translate(967,852)" d="m0 0h14l13 4 9 6 1 4-5 7-4-2-8-5-7-2h-12l-9 4-7 6-5 8-4 13v11l3 12 6 10 9 7 10 3h7l12-4 9-5 4-2 2 6v5l-9 6-13 5-5 1h-11l-9-2-10-5-9-8-7-11-3-10v-22l4-13 7-11 8-8 12-6z" fill="#140E14"/>
<path transform="translate(470,854)" d="m0 0h49v10l-2 1h-33l1 28 29 1-2 10-1 1-26 1v30h34v8l-2 3h-45l-1-9v-19z" fill="#140E14"/>
<path transform="translate(1064,854)" d="m0 0h49v10l-1 1h-33l1 28h27l1 4-2 7-8 1h-19v43h-13l-1-4z" fill="#140E14"/>
<path transform="translate(581,854)" d="m0 0h49v10l-1 1h-33v29h29l-1 9-3 2h-25v42l-5 1h-7l-1-1-1-21z" fill="#140E14"/>
<path transform="translate(272,854)" d="m0 0h74v11l-30 1-1 82h-11l-2-1-1-81-29-1z" fill="#140E14"/>
<path transform="translate(1232,854)" d="m0 0h14v82l37 1-3 10-3 1h-43l-1-1z" fill="#140E14"/>
<path transform="translate(892,854)" d="m0 0h14l1 93-1 1h-12l-1-1z" fill="#140E14"/>
<path transform="translate(720,715)" d="m0 0h16l11 4 17 9 3 1v2l-35 2-7 1-35-2-1-2 7-8 10-5z" fill="#F8F5F8"/>
<path transform="translate(822,865)" d="m0 0h15l8 4 4 5 2 5v7l-5 10-8 5-4 1h-12l-1-2v-34z" fill="#F8F5F8"/>
<path transform="translate(741,902)" d="m0 0 18 1 7 3 4 5 1 2v14l-4 6-5 3-4 1h-17z" fill="#F8F5F8"/>
<path transform="translate(741,864)" d="m0 0h12l9 3 4 4 1 2v10l-4 9h-21l-1-1z" fill="#F8F5F8"/>
<path transform="translate(639,540)" d="m0 0h3l-2 9 1 10 4 7 6 4-1 2h-16l-14-4-8-4v-3l8-7 7-7z" fill="#F8F5F8"/>
<path transform="translate(691,530)" d="m0 0 6 5 6 11 1 12-3 14-10 26-5 10-6 11-2 5-1 6v14l5 8 2 4-5-3-6-10-1-2v-14l4-13 5-9 6-12 8-21 4-14v-8l-5-14-3-4z" fill="#140E14"/>
<path transform="translate(668,877)" d="m0 0 3 1 11 31v3h-26l1-7 8-20z" fill="#F8F5F8"/>
<path transform="translate(957,711)" d="m0 0h2v13l-2 19-4 16-4 9-4 4h-5l-1-2 5-7 4-12 8-37z" fill="#140E14"/>
<path transform="translate(941,533)" d="m0 0 5 5 9 10 7 8 6 6v2l4 2 5 6 3 2v2l4 2v2l4 2 11 10 16 12 15 10-2 1-15-9-12-8-14-12-6-5v-2l-4-2-14-15-12-14-10-13z" fill="#F8F5F8"/>
<path transform="translate(954,560)" d="m0 0 7 6 16 17 8 7 13 12 7 6h-3l-11-8-14-12-19-19-4-7z" fill="#F8F5F8"/>
<path transform="translate(955,585)" d="m0 0 5 5 4 8 4 16 2 14v19h-1l-6-36-6-19z" fill="#F8F5F8"/>
<path transform="translate(718,636)" d="m0 0h9l12 5 4 5-1 4-5 1-4-4-4-5-5-2h-8l-6 5 1-5 3-3z" fill="#140E14"/>
<path transform="translate(964,583)" d="m0 0 5 3 8 9 5 5 13 12 1 3-4-2-10-8-15-15-3-5z" fill="#F8F5F8"/>
<path transform="translate(685,641)" d="m0 0h6l8 9 1 5-4-1-5-9-4-2-3 3-1-3z" fill="#140E14"/>
<path transform="translate(404,580)" d="m0 0h4v8h-7l-1-7z" fill="#F8F5F8"/>
<path transform="translate(393,580)" d="m0 0h3v7l-1 1h-6l-1-1v-6z" fill="#F8F5F8"/>
<path transform="translate(382,580)" d="m0 0 2 1v6l-1 1h-7v-7z" fill="#F8F5F8"/>
<path transform="translate(425,605)" d="m0 0h8v6l-1 1h-6l-1-1z" fill="#F8F5F8"/>
<path transform="translate(425,593)" d="m0 0h8v6l-1 1h-6l-1-1z" fill="#F8F5F8"/>
<path transform="translate(265,593)" d="m0 0h8v6l-1 1h-6l-1-1z" fill="#F8F5F8"/>
<path transform="translate(418,580)" d="m0 0 3 1v6l-7 1-1-1v-6z" fill="#F8F5F8"/>
<path transform="translate(1312,581)" d="m0 0h8v6l-7 1-1-1z" fill="#F8F5F8"/>
<path transform="translate(425,581)" d="m0 0h8v6l-7 1-1-1z" fill="#F8F5F8"/>
<path transform="translate(303,581)" d="m0 0h7v7h-7l-1-6z" fill="#F8F5F8"/>
<path transform="translate(265,581)" d="m0 0h8v6l-1 1-7-1z" fill="#F8F5F8"/>
<path transform="translate(426,556)" d="m0 0h7v6l-1 1h-6l-1-1v-5z" fill="#F8F5F8"/>
<path transform="translate(438,593)" d="m0 0h7v6l-1 1h-6l-1-6z" fill="#F8F5F8"/>
<path transform="translate(1190,581)" d="m0 0h7v6l-1 1h-6l-1-6z" fill="#F8F5F8"/>
<path transform="translate(389,409)" d="m0 0h7v6l-1 1h-6l-1-6z" fill="#F8F5F8"/>
<path transform="translate(376,409)" d="m0 0h8v6l-1 1h-6l-1-1z" fill="#F8F5F8"/>
<path transform="translate(403,605)" d="m0 0h5v7h-7l-1-1v-5z" fill="#F8F5F8"/>
<path transform="translate(438,605)" d="m0 0h7v6l-1 1h-6l-1-6z" fill="#F8F5F8"/>
<path transform="translate(413,605)" d="m0 0h7l1 3-1 4h-7z" fill="#F8F5F8"/>
<path transform="translate(265,605)" d="m0 0h8v6l-1 1h-6z" fill="#F8F5F8"/>
<path transform="translate(413,593)" d="m0 0h7l1 3-1 4h-7z" fill="#F8F5F8"/>
<path transform="translate(474,581)" d="m0 0h8v6l-6 1-2-2z" fill="#F8F5F8"/>
<path transform="translate(605,561)" d="m0 0h5v3l2 1h-2l-1 3-6 1v-7z" fill="#F8F5F8"/>
<path transform="translate(377,519)" d="m0 0h7v6l-1 1h-6l-1-6z" fill="#F8F5F8"/>
<path transform="translate(339,409)" d="m0 0h7l1 6-1 1h-6l-1-1z" fill="#F8F5F8"/>
<path transform="translate(403,593)" d="m0 0h5v7h-7l-1-6z" fill="#F8F5F8"/>
<path transform="translate(1192,593)" d="m0 0 5 1v5l-1 1h-6l-1-1v-5z" fill="#F8F5F8"/>
<path transform="translate(1177,581)" d="m0 0h7l1 4-1 3h-6l-1-1z" fill="#F8F5F8"/>
<path transform="translate(427,421)" d="m0 0h5l1 5-1 2h-6l-1-1v-5z" fill="#F8F5F8"/>
<path transform="translate(426,409)" d="m0 0h6l1 5-1 2h-6l-1-1v-5z" fill="#F8F5F8"/>
<path transform="translate(331,408)" d="m0 0h3v7l-7 1v-7z" fill="#F8F5F8"/>
<path transform="translate(389,384)" d="m0 0h6l1 7h-8v-6z" fill="#F8F5F8"/>
<path transform="translate(478,593)" d="m0 0h4v6l-1 1h-6l-1-6z" fill="#F8F5F8"/>
<path transform="translate(561,581)" d="m0 0h7v6l-6 1-2-3z" fill="#F8F5F8"/>
<path transform="translate(364,581)" d="m0 0h7v7h-7z" fill="#F8F5F8"/>
<path transform="translate(381,568)" d="m0 0 3 1v6h-8v-5z" fill="#F8F5F8"/>
<path transform="translate(413,556)" d="m0 0h8v6l-6 1-2-1z" fill="#F8F5F8"/>
<path transform="translate(333,543)" d="m0 0h2v7l-1 1h-6l-1-3 1-4z" fill="#F8F5F8"/>
<path transform="translate(377,531)" d="m0 0h6l1 1v5l-5 1h-2l-1-6z" fill="#F8F5F8"/>
<path transform="translate(364,519)" d="m0 0h7l1 3-1 4h-6l-1-1z" fill="#F8F5F8"/>
<path transform="translate(327,421)" d="m0 0h7v7h-7z" fill="#F8F5F8"/>
<path transform="translate(376,397)" d="m0 0h8v6l-7 1-1-1z" fill="#F8F5F8"/>
<path transform="translate(425,384)" d="m0 0h7v7h-7z" fill="#F8F5F8"/>
<path transform="translate(413,384)" d="m0 0h7v7h-7z" fill="#F8F5F8"/>
<path transform="translate(401,384)" d="m0 0h7v7h-7z" fill="#F8F5F8"/>
<path transform="translate(1014,629)" d="m0 0h5l6 5 1 4-5-1-7-6z" fill="#F8F5F8"/>
<path transform="translate(478,605)" d="m0 0h4v6l-1 1h-6l-1-1v-5z" fill="#F8F5F8"/>
<path transform="translate(388,606)" d="m0 0h8v6h-8z" fill="#F8F5F8"/>
<path transform="translate(1192,605)" d="m0 0 5 1v5l-1 1h-6l-1-5z" fill="#F8F5F8"/>
<path transform="translate(281,605)" d="m0 0h4v6l-1 1h-6l-1-5z" fill="#F8F5F8"/>
<path transform="translate(499,581)" d="m0 0h7v7h-6l-1-1z" fill="#F8F5F8"/>
<path transform="translate(487,581)" d="m0 0h7v7h-6l-1-1z" fill="#F8F5F8"/>
<path transform="translate(462,581)" d="m0 0h8l-2 7h-5l-1-1z" fill="#F8F5F8"/>
<path transform="translate(437,581)" d="m0 0h8v6l-4 1-4-2z" fill="#F8F5F8"/>
<path transform="translate(418,568)" d="m0 0 3 1v6h-8v-6z" fill="#F8F5F8"/>
<path transform="translate(392,568)" d="m0 0 4 1v6h-7l-1-5z" fill="#F8F5F8"/>
<path transform="translate(450,556)" d="m0 0h7v7h-6l-1-1z" fill="#F8F5F8"/>
<path transform="translate(438,556)" d="m0 0h7v6l-1 1h-6z" fill="#F8F5F8"/>
<path transform="translate(357,555)" d="m0 0h2v7l-6 1-1-1v-6z" fill="#F8F5F8"/>
<path transform="translate(265,556)" d="m0 0h8v6h-8z" fill="#F8F5F8"/>
<path transform="translate(450,544)" d="m0 0h7v7h-6l-1-1z" fill="#F8F5F8"/>
<path transform="translate(426,544)" d="m0 0h7v6l-1 1-7-1z" fill="#F8F5F8"/>
<path transform="translate(365,531)" d="m0 0h6l1 3-1 4h-6l-1-1v-5z" fill="#F8F5F8"/>
<path transform="translate(1337,519)" d="m0 0h6l1 1v6h-7z" fill="#F8F5F8"/>
<path transform="translate(1325,519)" d="m0 0h6l1 1v6h-7z" fill="#F8F5F8"/>
<path transform="translate(389,519)" d="m0 0h7v6l-1 1h-6z" fill="#F8F5F8"/>
<path transform="translate(352,519)" d="m0 0h7v7h-6l-1-1z" fill="#F8F5F8"/>
<path transform="translate(394,421)" d="m0 0h2v6l-1 1h-6l-1-1v-5z" fill="#F8F5F8"/>
<path transform="translate(438,409)" d="m0 0h7v6l-1 1h-6z" fill="#F8F5F8"/>
<path transform="translate(401,409)" d="m0 0h7v6l-1 1h-6z" fill="#F8F5F8"/>
<path transform="translate(450,384)" d="m0 0h7v7h-7z" fill="#F8F5F8"/>
<path transform="translate(512,691)" d="m0 0h7v7h-6l-1-1z" fill="#F8F5F8"/>
<path transform="translate(400,618)" d="m0 0h8v6h-7l-1-1z" fill="#F8F5F8"/>
<path transform="translate(376,606)" d="m0 0h8v5l-1 1h-7z" fill="#F8F5F8"/>
<path transform="translate(489,605)" d="m0 0h5v7h-7v-6z" fill="#F8F5F8"/>
<path transform="translate(1181,593)" d="m0 0 4 1v5l-7 1-1-1v-5z" fill="#F8F5F8"/>
<path transform="translate(395,593)" d="m0 0h1v6l-1 1h-6l-1-1v-5z" fill="#F8F5F8"/>
<path transform="translate(376,594)" d="m0 0h8v5l-1 1h-7z" fill="#F8F5F8"/>
<path transform="translate(1349,581)" d="m0 0h7v6l-1 1h-5l-1-1z" fill="#F8F5F8"/>
<path transform="translate(1264,581)" d="m0 0h6v7h-6l-1-1v-5z" fill="#F8F5F8"/>
<path transform="translate(573,581)" d="m0 0h7v6l-1 1h-5l-1-1z" fill="#F8F5F8"/>
<path transform="translate(316,581)" d="m0 0h6v7h-6l-1-1v-5z" fill="#F8F5F8"/>
<path transform="translate(291,581)" d="m0 0h6l1 3-2 4h-5l-1-1v-5z" fill="#F8F5F8"/>
<path transform="translate(278,581)" d="m0 0h7v6l-1 1h-5l-1-1z" fill="#F8F5F8"/>
<path transform="translate(425,569)" d="m0 0h8v6h-7l-1-1z" fill="#F8F5F8"/>
<path transform="translate(303,569)" d="m0 0h7v6l-5 1-3-3z" fill="#F8F5F8"/>
<path transform="translate(291,569)" d="m0 0h7v6l-5 1-3-2z" fill="#F8F5F8"/>
<path transform="translate(265,569)" d="m0 0h8v6h-7l-1-1z" fill="#F8F5F8"/>
<path transform="translate(488,556)" d="m0 0h6v7h-6l-1-1v-5z" fill="#F8F5F8"/>
<path transform="translate(475,556)" d="m0 0h6l1 1v5l-1 1h-6z" fill="#F8F5F8"/>
<path transform="translate(463,556)" d="m0 0h6v7h-6l-1-1v-5z" fill="#F8F5F8"/>
<path transform="translate(376,556)" d="m0 0h8v6h-7l-1-1z" fill="#F8F5F8"/>
<path transform="translate(278,556)" d="m0 0h7v7l-7-1z" fill="#F8F5F8"/>
<path transform="translate(493,543)" d="m0 0h1v8h-6l-1-5 1-2z" fill="#F8F5F8"/>
<path transform="translate(438,544)" d="m0 0h7v6l-1 1h-5l-1-1z" fill="#F8F5F8"/>
<path transform="translate(376,544)" d="m0 0h8v6h-7l-1-1z" fill="#F8F5F8"/>
<path transform="translate(316,544)" d="m0 0h6v7h-6l-1-1v-5z" fill="#F8F5F8"/>
<path transform="translate(304,544)" d="m0 0h5l1 1v6h-7v-6z" fill="#F8F5F8"/>
<path transform="translate(353,531)" d="m0 0h6v7h-6l-1-1v-5z" fill="#F8F5F8"/>
<path transform="translate(1252,519)" d="m0 0h6v7h-7v-6z" fill="#F8F5F8"/>
<path transform="translate(341,519)" d="m0 0h6v7h-6l-1-1v-5z" fill="#F8F5F8"/>
<path transform="translate(1177,495)" d="m0 0h7v7l-7-1z" fill="#F8F5F8"/>
<path transform="translate(364,495)" d="m0 0h8v6h-7l-1-1z" fill="#F8F5F8"/>
<path transform="translate(512,409)" d="m0 0h6l1 6-1 1h-6l-1-5z" fill="#F8F5F8"/>
<path transform="translate(450,409)" d="m0 0h7v6l-1 1h-5l-1-1z" fill="#F8F5F8"/>
<path transform="translate(413,409)" d="m0 0h7v6l-1 1h-5l-1-1z" fill="#F8F5F8"/>
<path transform="translate(364,409)" d="m0 0h7v7h-6l-1-1z" fill="#F8F5F8"/>
<path transform="translate(380,384)" d="m0 0 4 1v6h-8v-6z" fill="#F8F5F8"/>
<path transform="translate(437,741)" d="m0 0h8v5l-1 1h-7z" fill="#F8F5F8"/>
<path transform="translate(431,617)" d="m0 0 2 1-1 6h-7v-6z" fill="#F8F5F8"/>
<path transform="translate(388,618)" d="m0 0h8v5l-1 1h-6l-1-1z" fill="#F8F5F8"/>
<path transform="translate(308,605)" d="m0 0h2v6l-1 1h-6l-1-5z" fill="#F8F5F8"/>
<path transform="translate(450,605)" d="m0 0h7v6l-1 1h-6z" fill="#F8F5F8"/>
<path transform="translate(487,593)" d="m0 0h7v6l-1 1h-5l-1-1z" fill="#F8F5F8"/>
<path transform="translate(1165,581)" d="m0 0h7l1 4v2l-6 1-2-1z" fill="#F8F5F8"/>
<path transform="translate(1337,581)" d="m0 0h7v6l-6 1-1-1z" fill="#F8F5F8"/>
<path transform="translate(1253,581)" d="m0 0h5v7h-6l-1-1v-5z" fill="#F8F5F8"/>
<path transform="translate(1239,581)" d="m0 0h7v6l-1 1h-5l-1-1z" fill="#F8F5F8"/>
<path transform="translate(549,581)" d="m0 0h6v6l-1 1h-5l-1-1v-5z" fill="#F8F5F8"/>
<path transform="translate(352,581)" d="m0 0h6l1 6-1 1h-6z" fill="#F8F5F8"/>
<path transform="translate(1300,569)" d="m0 0h7v6l-6 1-1-1z" fill="#F8F5F8"/>
<path transform="translate(370,568)" d="m0 0h1v7l-6 1-1-1v-6z" fill="#F8F5F8"/>
<path transform="translate(389,556)" d="m0 0h7v6h-7l-1-5z" fill="#F8F5F8"/>
<path transform="translate(293,556)" d="m0 0h4l1 6-1 1h-6l-1-1v-5z" fill="#F8F5F8"/>
<path transform="translate(1349,544)" d="m0 0h7v7l-7-1z" fill="#F8F5F8"/>
<path transform="translate(1337,544)" d="m0 0h7v7l-7-1z" fill="#F8F5F8"/>
<path transform="translate(1325,544)" d="m0 0h6l1 1v5l-1 1h-5l-1-1z" fill="#F8F5F8"/>
<path transform="translate(1202,544)" d="m0 0h7v6l-5 1-2-1z" fill="#F8F5F8"/>
<path transform="translate(345,543)" d="m0 0h2v7l-6 1-1-1v-6z" fill="#F8F5F8"/>
<path transform="translate(278,544)" d="m0 0h7v6l-5 1-2-1z" fill="#F8F5F8"/>
<path transform="translate(265,544)" d="m0 0h8v6h-8z" fill="#F8F5F8"/>
<path transform="translate(341,531)" d="m0 0h6v7h-7v-6z" fill="#F8F5F8"/>
<path transform="translate(1277,519)" d="m0 0h5l1 1v6h-6l-1-1v-5z" fill="#F8F5F8"/>
<path transform="translate(1166,519)" d="m0 0h6v7h-6l-1-6z" fill="#F8F5F8"/>
<path transform="translate(525,519)" d="m0 0h6v6l-1 1h-5l-1-1v-5z" fill="#F8F5F8"/>
<path transform="translate(513,519)" d="m0 0h6v6l-1 1h-5l-1-1v-5z" fill="#F8F5F8"/>
<path transform="translate(401,519)" d="m0 0h7v6l-1 1h-5z" fill="#F8F5F8"/>
<path transform="translate(279,519)" d="m0 0h6v6l-1 1h-6v-6z" fill="#F8F5F8"/>
<path transform="translate(1165,495)" d="m0 0h7v6l-5 1-2-1z" fill="#F8F5F8"/>
<path transform="translate(512,470)" d="m0 0 7 1v6h-6l-1-1z" fill="#F8F5F8"/>
<path transform="translate(388,446)" d="m0 0h8v5l-1 1h-6l-1-1z" fill="#F8F5F8"/>
<path transform="translate(388,434)" d="m0 0h8v5l-1 1h-6l-1-1z" fill="#F8F5F8"/>
<path transform="translate(340,422)" d="m0 0h7v6h-7l-1-5z" fill="#F8F5F8"/>
<path transform="translate(414,421)" d="m0 0h6v6l-1 1h-5l-1-1v-5z" fill="#F8F5F8"/>
<path transform="translate(403,421)" d="m0 0h5v6l-1 1h-6v-6z" fill="#F8F5F8"/>
<path transform="translate(316,421)" d="m0 0h6v6l-1 1h-6z" fill="#F8F5F8"/>
<path transform="translate(463,409)" d="m0 0h6v6l-1 1h-5l-1-1v-5z" fill="#F8F5F8"/>
<path transform="translate(389,397)" d="m0 0h7v6h-7l-1-5z" fill="#F8F5F8"/>
<path transform="translate(438,384)" d="m0 0h6v7h-6l-1-5z" fill="#F8F5F8"/>
<path transform="translate(586,691)" d="m0 0h5l1 1v6h-6l-1-1v-5z" fill="#F8F5F8"/>
<path transform="translate(525,691)" d="m0 0h5l1 1v5l-1 1h-5l-1-1v-5z" fill="#F8F5F8"/>
<path transform="translate(364,667)" d="m0 0h8v5l-1 1h-6z" fill="#F8F5F8"/>
<path transform="translate(1324,606)" d="m0 0h8v5l-1 1h-6z" fill="#F8F5F8"/>
<path transform="translate(466,605)" d="m0 0h3v7h-7v-6z" fill="#F8F5F8"/>
<path transform="translate(1352,605)" d="m0 0h4v7h-6l-1-1v-5z" fill="#F8F5F8"/>
<path transform="translate(454,593)" d="m0 0h3v6l-1 1h-5l-2-5z" fill="#F8F5F8"/>
<path transform="translate(303,594)" d="m0 0h7v5l-1 1h-6l-1-5z" fill="#F8F5F8"/>
<path transform="translate(1325,581)" d="m0 0h7v6l-6 1-1-1z" fill="#F8F5F8"/>
<path transform="translate(1288,581)" d="m0 0h6l1 6-1 1h-6z" fill="#F8F5F8"/>
<path transform="translate(1216,581)" d="m0 0h5v6l-1 1h-5l-1-1v-5z" fill="#F8F5F8"/>
<path transform="translate(1204,581)" d="m0 0h5v6l-1 1h-5l-1-1v-5z" fill="#F8F5F8"/>
<path transform="translate(536,581)" d="m0 0h6l1 6-1 1h-5l-1-1z" fill="#F8F5F8"/>
<path transform="translate(328,581)" d="m0 0h6v7h-6l-1-1v-5z" fill="#F8F5F8"/>
<path transform="translate(1266,569)" d="m0 0h4v7h-6l-1-1v-5z" fill="#F8F5F8"/>
<path transform="translate(1190,569)" d="m0 0h7v6l-5 1-2-1z" fill="#F8F5F8"/>
<path transform="translate(406,568)" d="m0 0 2 1 1 6-6 1-2-1v-6z" fill="#F8F5F8"/>
<path transform="translate(1340,568)" d="m0 0 4 1v6h-7v-6z" fill="#F8F5F8"/>
<path transform="translate(1349,556)" d="m0 0h7v7l-6-1-1-1z" fill="#F8F5F8"/>
<path transform="translate(1325,556)" d="m0 0h6l1 1v5l-6 1-1-1z" fill="#F8F5F8"/>
<path transform="translate(1202,556)" d="m0 0h6l1 1v5l-5 1-2-1z" fill="#F8F5F8"/>
<path transform="translate(500,556)" d="m0 0h6v7h-6l-1-4z" fill="#F8F5F8"/>
<path transform="translate(1276,544)" d="m0 0h7v6l-1 1h-6z" fill="#F8F5F8"/>
<path transform="translate(1252,544)" d="m0 0h6v7h-6l-1-1v-5z" fill="#F8F5F8"/>
<path transform="translate(1215,544)" d="m0 0h6v6l-5 1-2-1v-5z" fill="#F8F5F8"/>
<path transform="translate(475,544)" d="m0 0h6l1 3-1 4h-5l-1-1z" fill="#F8F5F8"/>
<path transform="translate(414,544)" d="m0 0h6v6l-5 1-2-1v-5z" fill="#F8F5F8"/>
<path transform="translate(401,544)" d="m0 0h7v6l-5 1-2-1z" fill="#F8F5F8"/>
<path transform="translate(389,544)" d="m0 0h7v6l-5 1-2-1z" fill="#F8F5F8"/>
<path transform="translate(370,543)" d="m0 0 2 1-1 6h-7v-6z" fill="#F8F5F8"/>
<path transform="translate(357,543)" d="m0 0h2v7l-5 1-2-1v-6z" fill="#F8F5F8"/>
<path transform="translate(291,544)" d="m0 0h6v7h-5l-2-2z" fill="#F8F5F8"/>
<path transform="translate(282,531)" d="m0 0h3v7h-7v-6z" fill="#F8F5F8"/>
<path transform="translate(537,519)" d="m0 0h5l1 1v5l-1 1h-5l-1-1v-5z" fill="#F8F5F8"/>
<path transform="translate(291,519)" d="m0 0h6v7h-6l-1-4z" fill="#F8F5F8"/>
<path transform="translate(377,507)" d="m0 0h7v6h-7l-1-5z" fill="#F8F5F8"/>
<path transform="translate(364,483)" d="m0 0h8v5l-1 1h-6z" fill="#F8F5F8"/>
<path transform="translate(376,446)" d="m0 0h7l1 5-1 1h-6l-1-1z" fill="#F8F5F8"/>
<path transform="translate(327,446)" d="m0 0h7l1 5-1 1h-6l-1-1z" fill="#F8F5F8"/>
<path transform="translate(425,434)" d="m0 0h8v5l-1 1h-6z" fill="#F8F5F8"/>
<path transform="translate(376,434)" d="m0 0h7l1 5-1 1h-6l-1-1z" fill="#F8F5F8"/>
<path transform="translate(340,434)" d="m0 0h6l1 1v5h-7l-1-5z" fill="#F8F5F8"/>
<path transform="translate(382,421)" d="m0 0h2l-1 7h-6l-1-1v-5z" fill="#F8F5F8"/>
<path transform="translate(502,421)" d="m0 0h4v7h-6l-1-1v-5z" fill="#F8F5F8"/>
<path transform="translate(440,421)" d="m0 0 5 1v5l-1 1h-6v-6z" fill="#F8F5F8"/>
<path transform="translate(500,409)" d="m0 0h6v6l-6 1-1-1v-5z" fill="#F8F5F8"/>
<path transform="translate(487,409)" d="m0 0h7v6l-5 1-2-1z" fill="#F8F5F8"/>
<path transform="translate(352,409)" d="m0 0 7 1v6h-7z" fill="#F8F5F8"/>
<path transform="translate(358,396)" d="m0 0h1v7l-7 1-1-4 1-3z" fill="#F8F5F8"/>
<path transform="translate(487,716)" d="m0 0h7v6l-5 1-2-1z" fill="#F8F5F8"/>
<path transform="translate(463,716)" d="m0 0h6v6l-5 1-2-1z" fill="#F8F5F8"/>
<path transform="translate(328,716)" d="m0 0h6l1 2-1 4-5 1-2-1z" fill="#F8F5F8"/>
<path transform="translate(537,691)" d="m0 0h5l1 1v5l-3 1-4-1v-5z" fill="#F8F5F8"/>
<path transform="translate(389,691)" d="m0 0h7v6l-3 1-4-1z" fill="#F8F5F8"/>
<path transform="translate(377,691)" d="m0 0h7v6l-3 1-4-1z" fill="#F8F5F8"/>
<path transform="translate(1312,618)" d="m0 0h7l1 4-1 2h-6l-1-1z" fill="#F8F5F8"/>
<path transform="translate(438,618)" d="m0 0h7v5l-1 1h-6l-1-5z" fill="#F8F5F8"/>
<path transform="translate(376,618)" d="m0 0h8l-1 6h-6l-1-1z" fill="#F8F5F8"/>
<path transform="translate(561,606)" d="m0 0h7v5l-1 1h-6l-1-5z" fill="#F8F5F8"/>
<path transform="translate(501,605)" d="m0 0h5v7h-6l-1-1v-5z" fill="#F8F5F8"/>
<path transform="translate(294,593)" d="m0 0h3l1 3-2 4h-5l-1-1v-5z" fill="#F8F5F8"/>
<path transform="translate(1352,593)" d="m0 0h4v6l-1 1h-5l-1-1v-5z" fill="#F8F5F8"/>
<path transform="translate(1340,593)" d="m0 0h4v6l-1 1h-5l-1-1v-5z" fill="#F8F5F8"/>
<path transform="translate(1205,593)" d="m0 0h4v6l-1 1h-5l-1-1v-5z" fill="#F8F5F8"/>
<path transform="translate(280,593)" d="m0 0h5v6l-5 1-2-1v-5z" fill="#F8F5F8"/>
<path transform="translate(1227,581)" d="m0 0h6l1 3-2 4-5-1-1-5z" fill="#F8F5F8"/>
<path transform="translate(512,581)" d="m0 0h6v7h-6l-1-5z" fill="#F8F5F8"/>
<path transform="translate(450,581)" d="m0 0h7v6l-6 1-1-1z" fill="#F8F5F8"/>
<path transform="translate(1166,569)" d="m0 0h7v6h-8v-5z" fill="#F8F5F8"/>
<path transform="translate(328,569)" d="m0 0h6v6l-6 1-1-5z" fill="#F8F5F8"/>
<path transform="translate(316,569)" d="m0 0h6v6l-5 1-2-1v-5z" fill="#F8F5F8"/>
<path transform="translate(1288,544)" d="m0 0h7v6l-6 1-1-1z" fill="#F8F5F8"/>
<path transform="translate(1264,544)" d="m0 0h6v7h-6l-1-4z" fill="#F8F5F8"/>
<path transform="translate(1178,544)" d="m0 0h6v7l-6-1-1-5z" fill="#F8F5F8"/>
<path transform="translate(517,543)" d="m0 0 2 1v6l-6 1-1-1v-6z" fill="#F8F5F8"/>
<path transform="translate(561,532)" d="m0 0h7v5l-1 1h-6l-1-5z" fill="#F8F5F8"/>
<path transform="translate(517,531)" d="m0 0h2v7h-7v-6z" fill="#F8F5F8"/>
<path transform="translate(333,531)" d="m0 0h2v7h-7v-6z" fill="#F8F5F8"/>
<path transform="translate(332,519)" d="m0 0h3v6l-1 1h-6v-6z" fill="#F8F5F8"/>
<path transform="translate(1289,519)" d="m0 0h5l1 1v6h-6l-1-5z" fill="#F8F5F8"/>
<path transform="translate(1264,519)" d="m0 0h6l1 2v5h-7z" fill="#F8F5F8"/>
<path transform="translate(1215,519)" d="m0 0h5l1 5v2h-6l-1-5z" fill="#F8F5F8"/>
<path transform="translate(316,519)" d="m0 0h6v7h-6l-1-1v-5z" fill="#F8F5F8"/>
<path transform="translate(525,470)" d="m0 0 6 1v5l-1 1h-5l-1-1v-5z" fill="#F8F5F8"/>
<path transform="translate(328,458)" d="m0 0h6l1 5-1 1h-6l-1-5z" fill="#F8F5F8"/>
<path transform="translate(475,409)" d="m0 0h6v6l-5 1-2-2z" fill="#F8F5F8"/>
<path transform="translate(1252,716)" d="m0 0h6v6l-5 1-2-1v-5z" fill="#F8F5F8"/>
<path transform="translate(419,715)" d="m0 0 2 2-1 5h-6l-1-1v-5z" fill="#F8F5F8"/>
<path transform="translate(1216,691)" d="m0 0 5 1v5l-1 1h-5l-1-1v-5z" fill="#F8F5F8"/>
<path transform="translate(451,691)" d="m0 0h5l1 5-1 2h-5l-1-1v-5z" fill="#F8F5F8"/>
<path transform="translate(586,679)" d="m0 0h5l1 1v5l-6 1-1-1v-5z" fill="#F8F5F8"/>
<path transform="translate(364,655)" d="m0 0h8v5l-5 1-3-2z" fill="#F8F5F8"/>
<path transform="translate(525,642)" d="m0 0 6 1v6l-7-1v-5z" fill="#F8F5F8"/>
<path transform="translate(413,618)" d="m0 0h7l1 2-1 4h-7z" fill="#F8F5F8"/>
<path transform="translate(303,618)" d="m0 0h7v5l-7 1-1-5z" fill="#F8F5F8"/>
<path transform="translate(1342,605)" d="m0 0h2v6l-1 1h-6v-6z" fill="#F8F5F8"/>
<path transform="translate(1312,606)" d="m0 0h7l1 4-1 2h-6l-1-1z" fill="#F8F5F8"/>
<path transform="translate(1206,605)" d="m0 0 3 1v5l-1 1h-6v-6z" fill="#F8F5F8"/>
<path transform="translate(294,605)" d="m0 0h3v6l-1 1h-5l-1-1v-5z" fill="#F8F5F8"/>
<path transform="translate(1364,605)" d="m0 0h4v7h-6l-1-5z" fill="#F8F5F8"/>
<path transform="translate(1312,594)" d="m0 0h7l1 4-2 2h-5l-1-1z" fill="#F8F5F8"/>
<path transform="translate(466,593)" d="m0 0h3v6l-1 1h-5l-1-1v-5z" fill="#F8F5F8"/>
<path transform="translate(1364,593)" d="m0 0h4v7h-6l-1-5z" fill="#F8F5F8"/>
<path transform="translate(1362,581)" d="m0 0h6v7h-5l-2-5z" fill="#F8F5F8"/>
<path transform="translate(340,581)" d="m0 0h6v7h-6l-1-4z" fill="#F8F5F8"/>
<path transform="translate(257,581)" d="m0 0h4v6l-6 1-1-1v-5z" fill="#F8F5F8"/>
<path transform="translate(1352,568)" d="m0 0 4 1v6h-6l-1-1v-5z" fill="#F8F5F8"/>
<path transform="translate(1253,569)" d="m0 0h5v6l-5 1-2-1v-5z" fill="#F8F5F8"/>
<path transform="translate(1241,569)" d="m0 0h5v6l-5 1-2-1v-5z" fill="#F8F5F8"/>
<path transform="translate(561,569)" d="m0 0h6l1 5-1 1h-6l-1-5z" fill="#F8F5F8"/>
<path transform="translate(475,569)" d="m0 0h7v6h-7l-1-4z" fill="#F8F5F8"/>
<path transform="translate(456,568)" d="m0 0h1v7h-7v-6z" fill="#F8F5F8"/>
<path transform="translate(438,569)" d="m0 0h7v6h-7l-1-4z" fill="#F8F5F8"/>
<path transform="translate(278,569)" d="m0 0h7v6l-4 1-3-1z" fill="#F8F5F8"/>
<path transform="translate(321,556)" d="m0 0h1v7h-7v-6z" fill="#F8F5F8"/>
<path transform="translate(1338,556)" d="m0 0h5l1 1v5l-4 1-3-1v-5z" fill="#F8F5F8"/>
<path transform="translate(1190,556)" d="m0 0h6l1 5-1 2-6-1-1-4z" fill="#F8F5F8"/>
<path transform="translate(537,556)" d="m0 0h6v6l-6 1-1-1v-5z" fill="#F8F5F8"/>
<path transform="translate(401,556)" d="m0 0h7v6l-5 1-2-1z" fill="#F8F5F8"/>
<path transform="translate(364,556)" d="m0 0h7v6l-6 1-1-1z" fill="#F8F5F8"/>
<path transform="translate(257,556)" d="m0 0 4 1v6h-7v-5z" fill="#F8F5F8"/>
<path transform="translate(505,543)" d="m0 0 2 1-2 7h-5v-7z" fill="#F8F5F8"/>
<path transform="translate(463,544)" d="m0 0h6v7h-5l-2-4z" fill="#F8F5F8"/>
<path transform="translate(1349,532)" d="m0 0h7v7l-7-1z" fill="#F8F5F8"/>
<path transform="translate(1281,531)" d="m0 0 2 1v6h-7v-6z" fill="#F8F5F8"/>
<path transform="translate(406,531)" d="m0 0h2v7h-6l-1-1v-5z" fill="#F8F5F8"/>
<path transform="translate(389,531)" d="m0 0 7 1v5l-1 1h-6z" fill="#F8F5F8"/>
<path transform="translate(321,531)" d="m0 0h1v7h-7v-6z" fill="#F8F5F8"/>
<path transform="translate(489,531)" d="m0 0h5v7h-6l-1-1v-5z" fill="#F8F5F8"/>
<path transform="translate(1156,519)" d="m0 0h4v7h-6l-1-1v-5z" fill="#F8F5F8"/>
<path transform="translate(577,519)" d="m0 0 3 1v5l-1 1h-6v-6z" fill="#F8F5F8"/>
<path transform="translate(1301,519)" d="m0 0 6 1 1 5-1 1h-6l-1-5z" fill="#F8F5F8"/>
<path transform="translate(1203,519)" d="m0 0h5l1 3-1 4h-6v-6z" fill="#F8F5F8"/>
<path transform="translate(1190,519)" d="m0 0h6l1 2-1 5h-6z" fill="#F8F5F8"/>
<path transform="translate(488,519)" d="m0 0h6v7h-6l-1-2z" fill="#F8F5F8"/>
<path transform="translate(365,507)" d="m0 0h6l1 4-1 2h-6l-1-5z" fill="#F8F5F8"/>
<path transform="translate(1153,495)" d="m0 0h7v6l-3 1-4-1z" fill="#F8F5F8"/>
<path transform="translate(561,495)" d="m0 0h6l1 1v5l-4 1-3-1z" fill="#F8F5F8"/>
<path transform="translate(537,495)" d="m0 0h6l1 5-1 1h-6l-1-5z" fill="#F8F5F8"/>
<path transform="translate(443,470)" d="m0 0h2v6l-1 1h-6v-6z" fill="#F8F5F8"/>
<path transform="translate(364,471)" d="m0 0h8v5l-5 1-3-2z" fill="#F8F5F8"/>
<path transform="translate(425,446)" d="m0 0h8l-1 6h-6z" fill="#F8F5F8"/>
<path transform="translate(401,446)" d="m0 0h7v6h-7l-1-5z" fill="#F8F5F8"/>
<path transform="translate(512,434)" d="m0 0h6l1 5-1 1h-6l-1-5z" fill="#F8F5F8"/>
<path transform="translate(401,434)" d="m0 0h7v5l-1 1h-6l-1-5z" fill="#F8F5F8"/>
<path transform="translate(327,434)" d="m0 0h7l1 2-1 4h-7z" fill="#F8F5F8"/>
<path transform="translate(490,421)" d="m0 0h4v6l-6 1-1-1v-5z" fill="#F8F5F8"/>
<path transform="translate(438,397)" d="m0 0h7v6l-5 1-2-1-1-4z" fill="#F8F5F8"/>
<path transform="translate(405,396)" d="m0 0 3 1v6h-7v-6z" fill="#F8F5F8"/>
<path transform="translate(370,396)" d="m0 0h1v7h-7v-6z" fill="#F8F5F8"/>
<path transform="translate(370,384)" d="m0 0h1v7h-7v-6z" fill="#F8F5F8"/>
<path transform="translate(425,741)" d="m0 0h7v6h-7z" fill="#F8F5F8"/>
<path transform="translate(413,741)" d="m0 0h7v6h-7z" fill="#F8F5F8"/>
<path transform="translate(1350,728)" d="m0 0h5l1 1v5l-5 1-2-2z" fill="#F8F5F8"/>
<path transform="translate(586,716)" d="m0 0h6v6l-3 1-4-2z" fill="#F8F5F8"/>
<path transform="translate(536,716)" d="m0 0h7v6h-7z" fill="#F8F5F8"/>
<path transform="translate(450,716)" d="m0 0h7v6h-7z" fill="#F8F5F8"/>
<path transform="translate(438,716)" d="m0 0h7v6h-7z" fill="#F8F5F8"/>
<path transform="translate(401,716)" d="m0 0h7v6h-7z" fill="#F8F5F8"/>
<path transform="translate(1313,704)" d="m0 0h7v5l-6 1-2-2z" fill="#F8F5F8"/>
<path transform="translate(1354,691)" d="m0 0h2v7h-6l-1-5z" fill="#F8F5F8"/>
<path transform="translate(1277,691)" d="m0 0h5l1 1v5l-6 1-1-1v-5z" fill="#F8F5F8"/>
<path transform="translate(573,692)" d="m0 0h7v6h-7z" fill="#F8F5F8"/>
<path transform="translate(551,691)" d="m0 0 5 1v5l-1 1h-5l-1-1v-5z" fill="#F8F5F8"/>
<path transform="translate(401,691)" d="m0 0h7v6l-3 1-4-2z" fill="#F8F5F8"/>
<path transform="translate(512,679)" d="m0 0h7v6h-7z" fill="#F8F5F8"/>
<path transform="translate(500,679)" d="m0 0h7v6h-7z" fill="#F8F5F8"/>
<path transform="translate(389,679)" d="m0 0h7v6h-7z" fill="#F8F5F8"/>
<path transform="translate(377,679)" d="m0 0h7v6h-7z" fill="#F8F5F8"/>
<path transform="translate(561,667)" d="m0 0h7v6h-7z" fill="#F8F5F8"/>
<path transform="translate(549,667)" d="m0 0h7v6h-7z" fill="#F8F5F8"/>
<path transform="translate(536,667)" d="m0 0h8l-1 6h-6z" fill="#F8F5F8"/>
<path transform="translate(500,667)" d="m0 0h7v6h-7z" fill="#F8F5F8"/>
<path transform="translate(377,667)" d="m0 0h7v6h-7z" fill="#F8F5F8"/>
<path transform="translate(573,655)" d="m0 0h7v6h-7z" fill="#F8F5F8"/>
<path transform="translate(561,655)" d="m0 0h7v6h-7z" fill="#F8F5F8"/>
<path transform="translate(549,655)" d="m0 0h7v6h-7z" fill="#F8F5F8"/>
<path transform="translate(377,655)" d="m0 0h7v6h-7z" fill="#F8F5F8"/>
<path transform="translate(512,642)" d="m0 0h6l1 1v5l-2 1-5-1z" fill="#F8F5F8"/>
<path transform="translate(376,631)" d="m0 0h8v5l-5 1-3-2z" fill="#F8F5F8"/>
<path transform="translate(487,630)" d="m0 0h7v6h-7z" fill="#F8F5F8"/>
<path transform="translate(1325,618)" d="m0 0h7v5l-1 1h-6l-1-5z" fill="#F8F5F8"/>
<path transform="translate(1190,618)" d="m0 0h7v5l-1 1h-6l-1-4z" fill="#F8F5F8"/>
<path transform="translate(474,618)" d="m0 0h7l1 5-7 1-1-1z" fill="#F8F5F8"/>
<path transform="translate(352,618)" d="m0 0h7v6h-7z" fill="#F8F5F8"/>
<path transform="translate(328,618)" d="m0 0h6l1 5-1 1h-6l-1-5z" fill="#F8F5F8"/>
<path transform="translate(1177,606)" d="m0 0h7l1 2-1 4h-6l-1-1z" fill="#F8F5F8"/>
<path transform="translate(364,606)" d="m0 0h7v6h-7z" fill="#F8F5F8"/>
<path transform="translate(352,606)" d="m0 0h7v6h-7z" fill="#F8F5F8"/>
<path transform="translate(340,606)" d="m0 0h6l1 5-1 1h-6l-1-5z" fill="#F8F5F8"/>
<path transform="translate(1330,593)" d="m0 0 2 1v5l-7 1-1-5z" fill="#F8F5F8"/>
<path transform="translate(1170,593)" d="m0 0h2l1 5-3 2-5-1v-5z" fill="#F2EFF2"/>
<path transform="translate(561,594)" d="m0 0h7l-1 5-1 1h-5l-1-5z" fill="#F8F5F8"/>
<path transform="translate(364,594)" d="m0 0h7v6h-7z" fill="#F8F5F8"/>
<path transform="translate(1301,581)" d="m0 0 6 1v5l-1 1h-5l-1-1v-5z" fill="#F8F5F8"/>
<path transform="translate(1277,581)" d="m0 0h5v7h-6l-1-4z" fill="#F8F5F8"/>
<path transform="translate(586,581)" d="m0 0h5l1 6-1 1h-5l-1-1v-5z" fill="#F8F5F8"/>
<path transform="translate(524,581)" d="m0 0h6v7h-6z" fill="#F8F5F8"/>
<path transform="translate(1325,569)" d="m0 0h7v6h-7z" fill="#F8F5F8"/>
<path transform="translate(1203,569)" d="m0 0h6v6l-4 1-3-1v-5z" fill="#F8F5F8"/>
<path transform="translate(573,569)" d="m0 0h7v6h-7z" fill="#F8F5F8"/>
<path transform="translate(487,569)" d="m0 0h7v6h-7z" fill="#F8F5F8"/>
<path transform="translate(352,569)" d="m0 0h6l1 6-6 1-1-1z" fill="#F8F5F8"/>
<path transform="translate(1239,557)" d="m0 0h7v6h-7z" fill="#F8F5F8"/>
<path transform="translate(303,557)" d="m0 0h7v6h-7z" fill="#F8F5F8"/>
<path transform="translate(512,556)" d="m0 0h6v7h-6z" fill="#F8F5F8"/>
<path transform="translate(341,556)" d="m0 0h6l-1 7h-6v-6z" fill="#F8F5F8"/>
<path transform="translate(1190,544)" d="m0 0h6l1 5-1 2-6-1z" fill="#F8F5F8"/>
<path transform="translate(1168,544)" d="m0 0h4v7l-6-1-1-5z" fill="#F8F5F8"/>
<path transform="translate(1337,532)" d="m0 0h7v6h-7z" fill="#F8F5F8"/>
<path transform="translate(549,520)" d="m0 0h7v5l-1 1h-6l-1-4z" fill="#F8F5F8"/>
<path transform="translate(1178,519)" d="m0 0h6v7h-6z" fill="#F8F5F8"/>
<path transform="translate(500,519)" d="m0 0h6v7h-6z" fill="#F8F5F8"/>
<path transform="translate(476,519)" d="m0 0h5l1 6-1 1h-6v-6z" fill="#F8F5F8"/>
<path transform="translate(463,519)" d="m0 0h6v7h-6z" fill="#F8F5F8"/>
<path transform="translate(426,519)" d="m0 0h6v7h-6z" fill="#F8F5F8"/>
<path transform="translate(414,519)" d="m0 0h6v7h-6z" fill="#F8F5F8"/>
<path transform="translate(1166,507)" d="m0 0h6v6l-5 1-2-1v-5z" fill="#F8F5F8"/>
<path transform="translate(512,507)" d="m0 0h7v6h-7z" fill="#F8F5F8"/>
<path transform="translate(389,507)" d="m0 0h7v6h-7z" fill="#F8F5F8"/>
<path transform="translate(1300,495)" d="m0 0h7v7l-7-2z" fill="#F8F5F8"/>
<path transform="translate(1288,495)" d="m0 0h7v6h-7z" fill="#F8F5F8"/>
<path transform="translate(1141,495)" d="m0 0h7v6h-7z" fill="#F8F5F8"/>
<path transform="translate(573,495)" d="m0 0h7v6h-7z" fill="#F8F5F8"/>
<path transform="translate(512,495)" d="m0 0h7v6h-7z" fill="#F8F5F8"/>
<path transform="translate(389,495)" d="m0 0h7v6h-7z" fill="#F8F5F8"/>
<path transform="translate(377,495)" d="m0 0h7v6h-7z" fill="#F8F5F8"/>
<path transform="translate(340,495)" d="m0 0h7v6h-7z" fill="#F8F5F8"/>
<path transform="translate(328,495)" d="m0 0h7v6h-7z" fill="#F8F5F8"/>
<path transform="translate(1165,483)" d="m0 0h7v6h-7z" fill="#F8F5F8"/>
<path transform="translate(377,483)" d="m0 0h7v6h-7z" fill="#F8F5F8"/>
<path transform="translate(573,471)" d="m0 0h7v6h-7z" fill="#F8F5F8"/>
<path transform="translate(419,470)" d="m0 0 2 2-1 5h-6l-1-6z" fill="#F8F5F8"/>
<path transform="translate(296,470)" d="m0 0h1v6l-1 1h-6v-6z" fill="#F8F5F8"/>
<path transform="translate(488,470)" d="m0 0h5l1 1v5l-5 1-2-1v-5z" fill="#F8F5F8"/>
<path transform="translate(500,458)" d="m0 0h6l1 5-1 1h-6l-1-5z" fill="#F8F5F8"/>
<path transform="translate(512,446)" d="m0 0h6l1 5-1 1h-6l-1-5z" fill="#F8F5F8"/>
<path transform="translate(413,446)" d="m0 0h7v6h-7z" fill="#F8F5F8"/>
<path transform="translate(315,446)" d="m0 0h7v6h-7z" fill="#F8F5F8"/>
<path transform="translate(303,446)" d="m0 0h6l1 2-1 4h-7v-5z" fill="#F8F5F8"/>
<path transform="translate(413,434)" d="m0 0h7v6h-7z" fill="#F8F5F8"/>
<path transform="translate(315,434)" d="m0 0h7v6h-7z" fill="#F8F5F8"/>
<path transform="translate(370,421)" d="m0 0h1v7h-6l-1-1v-5z" fill="#F8F5F8"/>
<path transform="translate(352,422)" d="m0 0h7v6h-7z" fill="#F8F5F8"/>
<path transform="translate(524,409)" d="m0 0h6l1 6-1 1h-5l-1-1z" fill="#F8F5F8"/>
<path transform="translate(487,397)" d="m0 0h7v6h-7z" fill="#F8F5F8"/>
<path transform="translate(450,397)" d="m0 0h7v6h-7z" fill="#F8F5F8"/>
<path transform="translate(425,397)" d="m0 0h7v6h-7z" fill="#F8F5F8"/>
<path transform="translate(413,397)" d="m0 0h7v6h-7z" fill="#F8F5F8"/>
<path transform="translate(441,753)" d="m0 0 4 1-1 5h-7v-5z" fill="#F8F5F8"/>
<path transform="translate(429,753)" d="m0 0 4 1-1 5h-7v-5z" fill="#F8F5F8"/>
<path transform="translate(450,741)" d="m0 0h7v6h-6l-1-1z" fill="#F8F5F8"/>
<path transform="translate(1338,716)" d="m0 0h6v6h-7v-5z" fill="#F8F5F8"/>
<path transform="translate(1305,715)" d="m0 0 2 1v6h-6l-1-5z" fill="#F8F5F8"/>
<path transform="translate(1240,716)" d="m0 0h5l1 4v2l-5 1-2-1v-5z" fill="#F8F5F8"/>
<path transform="translate(574,716)" d="m0 0h6v6h-7v-5z" fill="#F8F5F8"/>
<path transform="translate(425,716)" d="m0 0h7v6h-6l-1-1z" fill="#F8F5F8"/>
<path transform="translate(585,704)" d="m0 0h7v6h-6l-1-1z" fill="#F8F5F8"/>
<path transform="translate(573,704)" d="m0 0h7v6h-6l-1-1z" fill="#F8F5F8"/>
<path transform="translate(487,704)" d="m0 0h7v6h-6l-1-1z" fill="#F8F5F8"/>
<path transform="translate(450,704)" d="m0 0h7v5l-1 1h-6z" fill="#F8F5F8"/>
<path transform="translate(1337,692)" d="m0 0h7v6h-6l-1-1z" fill="#F8F5F8"/>
<path transform="translate(561,692)" d="m0 0h7v5l-1 1h-6z" fill="#F8F5F8"/>
<path transform="translate(488,691)" d="m0 0 6 1v6h-6l-1-4z" fill="#F8F5F8"/>
<path transform="translate(315,692)" d="m0 0h7v6h-6l-1-1z" fill="#F8F5F8"/>
<path transform="translate(1374,691)" d="m0 0h7l-1 6-5 1-1-1z" fill="#F8F5F8"/>
<path transform="translate(439,691)" d="m0 0h5l1 2-1 5h-5l-1-1v-5z" fill="#F8F5F8"/>
<path transform="translate(574,679)" d="m0 0h6v6l-3 1-4-1v-5z" fill="#F8F5F8"/>
<path transform="translate(524,679)" d="m0 0h6l1 1v5h-7z" fill="#F8F5F8"/>
<path transform="translate(401,679)" d="m0 0h7v5l-1 1h-6z" fill="#F8F5F8"/>
<path transform="translate(1337,667)" d="m0 0h7v6h-6l-1-1z" fill="#F8F5F8"/>
<path transform="translate(1325,667)" d="m0 0h7v6h-6l-1-1z" fill="#F8F5F8"/>
<path transform="translate(1313,667)" d="m0 0h7v6h-6l-1-1z" fill="#F8F5F8"/>
<path transform="translate(1276,667)" d="m0 0h7v6h-6l-1-1z" fill="#F8F5F8"/>
<path transform="translate(585,667)" d="m0 0h7v6h-6l-1-1z" fill="#F8F5F8"/>
<path transform="translate(573,667)" d="m0 0h7v6h-6l-1-1z" fill="#F8F5F8"/>
<path transform="translate(524,667)" d="m0 0h7v6h-6l-1-1z" fill="#F8F5F8"/>
<path transform="translate(512,667)" d="m0 0h7v6h-6l-1-1z" fill="#F8F5F8"/>
<path transform="translate(413,667)" d="m0 0h8l-1 6h-6z" fill="#F8F5F8"/>
<path transform="translate(352,667)" d="m0 0h7v6h-6l-1-1z" fill="#F8F5F8"/>
<path transform="translate(340,667)" d="m0 0h7v6h-6l-1-1z" fill="#F8F5F8"/>
<path transform="translate(1374,655)" d="m0 0h7v5l-1 1h-6z" fill="#F8F5F8"/>
<path transform="translate(1337,655)" d="m0 0h7v6h-6l-1-1z" fill="#F8F5F8"/>
<path transform="translate(1325,655)" d="m0 0h7v6h-6l-1-1z" fill="#F8F5F8"/>
<path transform="translate(1313,655)" d="m0 0h7v6h-6l-1-1z" fill="#F8F5F8"/>
<path transform="translate(1276,655)" d="m0 0h7v6h-6l-1-1z" fill="#F8F5F8"/>
<path transform="translate(585,655)" d="m0 0h7v6h-6l-1-1z" fill="#F8F5F8"/>
<path transform="translate(524,655)" d="m0 0h7v6h-6l-1-1z" fill="#F8F5F8"/>
<path transform="translate(512,655)" d="m0 0h7v6h-6l-1-1z" fill="#F8F5F8"/>
<path transform="translate(389,655)" d="m0 0h7v5l-1 1h-6z" fill="#F8F5F8"/>
<path transform="translate(340,655)" d="m0 0h7v6h-6l-1-1z" fill="#F8F5F8"/>
<path transform="translate(573,643)" d="m0 0h7v6h-6l-1-1z" fill="#F8F5F8"/>
<path transform="translate(438,642)" d="m0 0h7v6l-3 1-4-1z" fill="#F8F5F8"/>
<path transform="translate(365,642)" d="m0 0 7 1v5h-7l-1-5z" fill="#F8F5F8"/>
<path transform="translate(278,642)" d="m0 0h6l1 1v5h-7z" fill="#F8F5F8"/>
<path transform="translate(1374,631)" d="m0 0h7v5l-1 1h-6z" fill="#F8F5F8"/>
<path transform="translate(443,630)" d="m0 0h2v6l-3 1-4-1-1-5z" fill="#F8F5F8"/>
<path transform="translate(525,630)" d="m0 0h5l1 1v5l-2 1-5-1v-5z" fill="#F8F5F8"/>
<path transform="translate(512,630)" d="m0 0h6l1 1v5h-7z" fill="#F8F5F8"/>
<path transform="translate(1276,618)" d="m0 0h7v5l-1 1h-6z" fill="#F8F5F8"/>
<path transform="translate(1202,618)" d="m0 0h7v5l-1 1h-6z" fill="#F8F5F8"/>
<path transform="translate(499,618)" d="m0 0h7v6h-6l-1-1z" fill="#F8F5F8"/>
<path transform="translate(487,618)" d="m0 0h7v5l-1 1h-6z" fill="#F8F5F8"/>
<path transform="translate(450,618)" d="m0 0h7v5l-1 1h-6z" fill="#F8F5F8"/>
<path transform="translate(364,618)" d="m0 0h7v6h-6l-1-1z" fill="#F8F5F8"/>
<path transform="translate(278,618)" d="m0 0h7v5l-1 1h-6z" fill="#F8F5F8"/>
<path transform="translate(266,618)" d="m0 0h7v5l-1 1h-6z" fill="#F8F5F8"/>
<path transform="translate(1300,606)" d="m0 0h7v6h-6l-1-1z" fill="#F8F5F8"/>
<path transform="translate(1288,606)" d="m0 0h7v5l-1 1h-6z" fill="#F8F5F8"/>
<path transform="translate(1251,606)" d="m0 0h7v6h-6l-1-1z" fill="#F8F5F8"/>
<path transform="translate(1245,605)" d="m0 0h1v6l-1 1h-5l-1-1v-5z" fill="#F8F5F8"/>
<path transform="translate(1220,605)" d="m0 0h1v6l-1 1h-5l-1-1v-5z" fill="#F8F5F8"/>
<path transform="translate(573,606)" d="m0 0h7v5l-1 1h-6z" fill="#F8F5F8"/>
<path transform="translate(548,606)" d="m0 0h7v6h-6l-1-1z" fill="#F8F5F8"/>
<path transform="translate(327,606)" d="m0 0h7v6h-6l-1-1z" fill="#F8F5F8"/>
<path transform="translate(315,606)" d="m0 0h7v6h-6l-1-1z" fill="#F8F5F8"/>
<path transform="translate(1263,594)" d="m0 0h7v6h-6l-1-1z" fill="#F8F5F8"/>
<path transform="translate(1220,593)" d="m0 0h1v6l-1 1h-5l-1-1v-5z" fill="#F8F5F8"/>
<path transform="translate(573,594)" d="m0 0h7v5l-1 1h-6z" fill="#F8F5F8"/>
<path transform="translate(514,593)" d="m0 0 4 1v6h-6l-1-6z" fill="#F8F5F8"/>
<path transform="translate(327,594)" d="m0 0h7v6h-6l-1-1z" fill="#F8F5F8"/>
<path transform="translate(1290,569)" d="m0 0h4l1 6-6 1-1-1v-5z" fill="#F8F5F8"/>
<path transform="translate(1215,569)" d="m0 0h6v6l-4 1-3-2z" fill="#F8F5F8"/>
<path transform="translate(1177,569)" d="m0 0h7v6h-7z" fill="#F8F5F8"/>
<path transform="translate(500,569)" d="m0 0h6v6h-7v-5z" fill="#F8F5F8"/>
<path transform="translate(462,569)" d="m0 0h7v6h-6l-1-1z" fill="#F8F5F8"/>
<path transform="translate(1251,557)" d="m0 0h7v6h-6l-1-1z" fill="#F8F5F8"/>
<path transform="translate(1217,556)" d="m0 0h4v6l-5 1-2-1v-5z" fill="#F8F5F8"/>
<path transform="translate(332,556)" d="m0 0h2v7h-6l-1-4 1-2z" fill="#F8F5F8"/>
<path transform="translate(576,556)" d="m0 0 4 1v5l-5 1-2-1v-5z" fill="#F8F5F8"/>
<path transform="translate(524,556)" d="m0 0h6v7h-5l-1-1z" fill="#F8F5F8"/>
<path transform="translate(1153,544)" d="m0 0 7 1v5l-5 1-2-2z" fill="#F8F5F8"/>
<path transform="translate(537,544)" d="m0 0h6v6h-7v-5z" fill="#F8F5F8"/>
<path transform="translate(1325,532)" d="m0 0h6l1 1v5h-7z" fill="#F8F5F8"/>
<path transform="translate(1300,532)" d="m0 0h7v6h-6l-1-1z" fill="#F8F5F8"/>
<path transform="translate(1288,532)" d="m0 0h7v6h-6l-1-1z" fill="#F8F5F8"/>
<path transform="translate(1252,532)" d="m0 0h6v6h-7v-5z" fill="#F8F5F8"/>
<path transform="translate(1239,532)" d="m0 0h7v6h-7z" fill="#F8F5F8"/>
<path transform="translate(1202,532)" d="m0 0h7v6h-7z" fill="#F8F5F8"/>
<path transform="translate(1165,532)" d="m0 0h7v6h-6l-1-1z" fill="#F8F5F8"/>
<path transform="translate(1153,532)" d="m0 0h7v6h-6l-1-1z" fill="#F8F5F8"/>
<path transform="translate(573,532)" d="m0 0h7v5l-1 1h-6z" fill="#F8F5F8"/>
<path transform="translate(541,531)" d="m0 0 2 1v5l-1 1h-5l-1-1v-5z" fill="#F8F5F8"/>
<path transform="translate(529,531)" d="m0 0 2 1v5l-1 1h-5l-1-1v-5z" fill="#F8F5F8"/>
<path transform="translate(1316,519)" d="m0 0 4 2v5h-7v-6z" fill="#F8F5F8"/>
<path transform="translate(561,520)" d="m0 0h7v5l-1 1h-6z" fill="#F8F5F8"/>
<path transform="translate(1228,519)" d="m0 0h5v7h-6v-6z" fill="#F8F5F8"/>
<path transform="translate(438,519)" d="m0 0h6v7h-5l-1-1z" fill="#F8F5F8"/>
<path transform="translate(401,507)" d="m0 0h7v6h-6l-1-1z" fill="#F8F5F8"/>
<path transform="translate(341,507)" d="m0 0h6v6h-7v-5z" fill="#F8F5F8"/>
<path transform="translate(1276,495)" d="m0 0h7v6h-6l-1-1z" fill="#F8F5F8"/>
<path transform="translate(549,495)" d="m0 0h6l1 1v5h-7z" fill="#F8F5F8"/>
<path transform="translate(524,495)" d="m0 0h7v6h-6l-1-1z" fill="#F8F5F8"/>
<path transform="translate(401,495)" d="m0 0h7v6h-6l-1-1z" fill="#F8F5F8"/>
<path transform="translate(352,495)" d="m0 0h7v6h-6l-1-1z" fill="#F8F5F8"/>
<path transform="translate(316,495)" d="m0 0h6v6h-7v-5z" fill="#F8F5F8"/>
<path transform="translate(303,495)" d="m0 0h7v5l-1 1h-6z" fill="#F8F5F8"/>
<path transform="translate(1153,483)" d="m0 0h6l1 1v5h-7z" fill="#F8F5F8"/>
<path transform="translate(524,483)" d="m0 0h7v6h-6l-1-1z" fill="#F8F5F8"/>
<path transform="translate(512,483)" d="m0 0h7v6h-6l-1-1z" fill="#F8F5F8"/>
<path transform="translate(401,483)" d="m0 0h7v6h-6l-1-1z" fill="#F8F5F8"/>
<path transform="translate(389,483)" d="m0 0h7v5l-1 1h-6z" fill="#F8F5F8"/>
<path transform="translate(352,483)" d="m0 0h7v6h-6l-1-1z" fill="#F8F5F8"/>
<path transform="translate(340,483)" d="m0 0h7v6h-6l-1-1z" fill="#F8F5F8"/>
<path transform="translate(328,483)" d="m0 0h7v5l-1 1h-6z" fill="#F8F5F8"/>
<path transform="translate(1128,471)" d="m0 0h7v6h-6l-1-1z" fill="#F8F5F8"/>
<path transform="translate(456,470)" d="m0 0h1v6l-1 1h-5l-1-1v-5z" fill="#F8F5F8"/>
<path transform="translate(407,470)" d="m0 0h1v6l-1 1h-5l-1-1v-5z" fill="#F8F5F8"/>
<path transform="translate(328,470)" d="m0 0 7 1v5l-6 1-2-5z" fill="#F8F5F8"/>
<path transform="translate(561,446)" d="m0 0h6l1 5-1 1h-6l-1-4z" fill="#F8F5F8"/>
<path transform="translate(450,446)" d="m0 0h7v5l-1 1h-6z" fill="#F8F5F8"/>
<path transform="translate(438,446)" d="m0 0h7v5l-1 1h-6z" fill="#F8F5F8"/>
<path transform="translate(364,446)" d="m0 0h7v6h-6l-1-1z" fill="#F8F5F8"/>
<path transform="translate(450,434)" d="m0 0h7v5l-1 1h-6z" fill="#F8F5F8"/>
<path transform="translate(438,434)" d="m0 0h7v5l-1 1h-6z" fill="#F8F5F8"/>
<path transform="translate(364,434)" d="m0 0h7v6h-6l-1-1z" fill="#F8F5F8"/>
<path transform="translate(352,434)" d="m0 0h6l1 1v5h-7z" fill="#F8F5F8"/>
<path transform="translate(468,421)" d="m0 0h1v6l-1 1h-5l-1-1v-5z" fill="#F8F5F8"/>
<path transform="translate(450,422)" d="m0 0h7v5l-1 1h-6z" fill="#F8F5F8"/>
<path transform="translate(525,421)" d="m0 0h5l1 6-6 1-1-1v-5z" fill="#F8F5F8"/>
<path transform="translate(462,397)" d="m0 0h7v6h-7z" fill="#F8F5F8"/>
<path transform="translate(462,385)" d="m0 0h7v6h-6l-1-1z" fill="#F8F5F8"/>
<path transform="translate(1350,741)" d="m0 0h6v6h-6l-1-5z" fill="#F8F5F8"/>
<path transform="translate(1338,741)" d="m0 0h5l1 1v5h-7v-5z" fill="#F8F5F8"/>
<path transform="translate(1215,741)" d="m0 0h6v6h-6l-1-5z" fill="#F8F5F8"/>
<path transform="translate(586,741)" d="m0 0h5l1 1v5h-7v-5z" fill="#F8F5F8"/>
<path transform="translate(463,741)" d="m0 0h6v6h-6l-1-5z" fill="#F8F5F8"/>
<path transform="translate(586,728)" d="m0 0 6 1v5l-4 1-3-2z" fill="#F8F5F8"/>
<path transform="translate(1350,716)" d="m0 0h6v6h-6l-1-5z" fill="#F8F5F8"/>
<path transform="translate(1325,716)" d="m0 0h7l-1 6h-6z" fill="#F8F5F8"/>
<path transform="translate(1215,716)" d="m0 0h5l1 3-1 4-6-1v-5z" fill="#F8F5F8"/>
<path transform="translate(475,716)" d="m0 0h6v6l-4 1-3-3z" fill="#F8F5F8"/>
<path transform="translate(365,716)" d="m0 0h6v6h-6l-1-5z" fill="#F8F5F8"/>
<path transform="translate(1337,704)" d="m0 0h7v6l-7-1z" fill="#F8F5F8"/>
<path transform="translate(1276,704)" d="m0 0h7v5l-1 1h-5l-1-1z" fill="#F8F5F8"/>
<path transform="translate(1252,704)" d="m0 0h6v6h-6l-1-5z" fill="#F8F5F8"/>
<path transform="translate(561,704)" d="m0 0h7v5l-1 1h-5l-1-1z" fill="#F8F5F8"/>
<path transform="translate(1363,691)" d="m0 0h5v7h-5l-1-1v-5z" fill="#F8F5F8"/>
<path transform="translate(426,691)" d="m0 0h6v6l-5 1-1-1z" fill="#F8F5F8"/>
<path transform="translate(1301,679)" d="m0 0 7 1-1 5h-6l-1-4z" fill="#F8F5F8"/>
<path transform="translate(561,679)" d="m0 0h7v6h-7z" fill="#F8F5F8"/>
<path transform="translate(1374,667)" d="m0 0h7l-1 6h-6z" fill="#F8F5F8"/>
<path transform="translate(1301,667)" d="m0 0h6l1 5-5 1-3-2z" fill="#F8F5F8"/>
<path transform="translate(1264,667)" d="m0 0h7v5l-1 1h-5l-1-1z" fill="#F8F5F8"/>
<path transform="translate(389,667)" d="m0 0h7v5l-7 1z" fill="#F8F5F8"/>
<path transform="translate(1264,655)" d="m0 0h7v5l-1 1h-5l-1-1z" fill="#F8F5F8"/>
<path transform="translate(537,655)" d="m0 0h7l-1 6h-6l-1-5z" fill="#F8F5F8"/>
<path transform="translate(425,655)" d="m0 0h8l-1 6h-6z" fill="#F8F5F8"/>
<path transform="translate(328,655)" d="m0 0h7v5l-1 1h-5l-1-1z" fill="#F8F5F8"/>
<path transform="translate(1337,643)" d="m0 0h7v5l-1 1h-5l-1-1z" fill="#F8F5F8"/>
<path transform="translate(549,643)" d="m0 0h7v5l-1 1h-5l-1-1z" fill="#F8F5F8"/>
<path transform="translate(539,642)" d="m0 0 5 1-1 6-6-1-1-5z" fill="#F8F5F8"/>
<path transform="translate(1277,642)" d="m0 0h5l1 1v5h-7v-5z" fill="#F8F5F8"/>
<path transform="translate(1264,642)" d="m0 0h6l1 5-1 1h-6z" fill="#F8F5F8"/>
<path transform="translate(341,642)" d="m0 0h5l1 1v5h-7v-5z" fill="#F8F5F8"/>
<path transform="translate(1277,630)" d="m0 0h5l1 1v5h-7v-5z" fill="#F8F5F8"/>
<path transform="translate(500,630)" d="m0 0h6v6h-6l-1-5z" fill="#F8F5F8"/>
<path transform="translate(278,630)" d="m0 0h7v5l-1 1h-6z" fill="#F8F5F8"/>
<path transform="translate(1288,618)" d="m0 0h7v5l-1 1h-5l-1-1z" fill="#F8F5F8"/>
<path transform="translate(1251,618)" d="m0 0h7v5l-1 1h-5l-1-1z" fill="#F8F5F8"/>
<path transform="translate(1214,618)" d="m0 0h7v5l-1 1h-5l-1-1z" fill="#F8F5F8"/>
<path transform="translate(561,618)" d="m0 0h7v5l-1 1h-6l-1-5z" fill="#F8F5F8"/>
<path transform="translate(549,618)" d="m0 0h6l1 2-1 4h-6l-1-5z" fill="#F8F5F8"/>
<path transform="translate(524,618)" d="m0 0h6l1 5-1 1h-6z" fill="#F8F5F8"/>
<path transform="translate(462,618)" d="m0 0h7v5l-1 1h-5l-1-1z" fill="#F8F5F8"/>
<path transform="translate(340,618)" d="m0 0h6l1 5-1 1h-6z" fill="#F8F5F8"/>
<path transform="translate(290,618)" d="m0 0h7v5l-1 1h-5l-1-1z" fill="#F8F5F8"/>
<path transform="translate(1264,606)" d="m0 0h6v6h-6l-1-5z" fill="#F8F5F8"/>
<path transform="translate(1232,605)" d="m0 0 2 3-2 4h-5l-1-5z" fill="#F8F5F8"/>
<path transform="translate(1165,606)" d="m0 0h7v5l-1 1h-5l-1-1z" fill="#F8F5F8"/>
<path transform="translate(1379,593)" d="m0 0 2 1v5l-5 1-2-1v-5z" fill="#F8F5F8"/>
<path transform="translate(1300,594)" d="m0 0h7v5l-1 1h-5l-1-1z" fill="#F8F5F8"/>
<path transform="translate(1251,594)" d="m0 0h7v5l-1 1h-5l-1-1z" fill="#F8F5F8"/>
<path transform="translate(1239,594)" d="m0 0h7v5l-1 1h-5l-1-1z" fill="#F8F5F8"/>
<path transform="translate(548,594)" d="m0 0h7v5l-1 1h-5l-1-1z" fill="#F8F5F8"/>
<path transform="translate(499,594)" d="m0 0h7v5l-1 1h-5l-1-1z" fill="#F8F5F8"/>
<path transform="translate(352,594)" d="m0 0h6l1 5-1 1h-6z" fill="#F8F5F8"/>
<path transform="translate(315,594)" d="m0 0h7v5l-1 1h-5l-1-1z" fill="#F8F5F8"/>
<path transform="translate(525,593)" d="m0 0h5v7h-6v-6z" fill="#F8F5F8"/>
<path transform="translate(1374,581)" d="m0 0h6v7l-6-1z" fill="#F8F5F8"/>
<path transform="translate(1312,569)" d="m0 0h7v6h-6z" fill="#F8F5F8"/>
<path transform="translate(512,569)" d="m0 0h6v6l-6 1z" fill="#F8F5F8"/>
<path transform="translate(340,569)" d="m0 0h6v6l-5 1-1-1z" fill="#F8F5F8"/>
<path transform="translate(256,569)" d="m0 0h5v6h-7v-5z" fill="#F8F5F8"/>
<path transform="translate(1374,568)" d="m0 0 5 1 1 7-6-1z" fill="#F8F5F8"/>
<path transform="translate(1317,556)" d="m0 0 2 1v5l-1 1h-5l-1-6z" fill="#F8F5F8"/>
<path transform="translate(1300,557)" d="m0 0h7v5l-1 1h-5l-1-1z" fill="#F8F5F8"/>
<path transform="translate(1293,556)" d="m0 0h2v6l-1 1h-5l-1-1v-5z" fill="#F8F5F8"/>
<path transform="translate(1264,557)" d="m0 0h6v6h-6l-1-5z" fill="#F8F5F8"/>
<path transform="translate(1181,556)" d="m0 0 3 1v6l-6-1-1-5z" fill="#F8F5F8"/>
<path transform="translate(565,556)" d="m0 0 3 1-1 5-4 1-3-3 1-3z" fill="#F8F5F8"/>
<path transform="translate(586,556)" d="m0 0h5v7h-5l-1-1v-5z" fill="#F8F5F8"/>
<path transform="translate(1239,545)" d="m0 0h7v5l-1 1h-5l-1-1z" fill="#F8F5F8"/>
<path transform="translate(1301,544)" d="m0 0h6v6h-6l-1-5z" fill="#F8F5F8"/>
<path transform="translate(564,544)" d="m0 0 4 1-1 5h-6l-1-4z" fill="#F8F5F8"/>
<path transform="translate(524,544)" d="m0 0h7v6h-7z" fill="#F8F5F8"/>
<path transform="translate(1215,532)" d="m0 0h6v6h-6l-1-5z" fill="#F8F5F8"/>
<path transform="translate(549,532)" d="m0 0h6l1 2-2 4h-5l-1-5z" fill="#F8F5F8"/>
<path transform="translate(451,532)" d="m0 0h6v6h-6l-1-5z" fill="#F8F5F8"/>
<path transform="translate(303,532)" d="m0 0h6l1 3v3h-7z" fill="#F8F5F8"/>
<path transform="translate(416,531)" d="m0 0h4v7h-6v-6z" fill="#F8F5F8"/>
<path transform="translate(1141,520)" d="m0 0h7v5l-1 1h-5l-1-1z" fill="#F8F5F8"/>
<path transform="translate(1240,519)" d="m0 0 5 1v6h-6v-6z" fill="#F8F5F8"/>
<path transform="translate(451,519)" d="m0 0h5v7h-5l-1-1v-5z" fill="#F8F5F8"/>
<path transform="translate(304,519)" d="m0 0 5 1 1 5-1 1h-6v-6z" fill="#F8F5F8"/>
<path transform="translate(578,507)" d="m0 0 2 1v5l-6 1-1-1v-5z" fill="#F8F5F8"/>
<path transform="translate(1325,507)" d="m0 0h6v7l-6-1z" fill="#F8F5F8"/>
<path transform="translate(1178,507)" d="m0 0h6v7h-5l-2-3z" fill="#F8F5F8"/>
<path transform="translate(1141,507)" d="m0 0 7 1v5h-7z" fill="#F8F5F8"/>
<path transform="translate(525,507)" d="m0 0h5l1 1v5h-7v-5z" fill="#F8F5F8"/>
<path transform="translate(438,507)" d="m0 0h6v7h-5l-1-1z" fill="#F8F5F8"/>
<path transform="translate(353,507)" d="m0 0h5l1 1v5h-7v-5z" fill="#F8F5F8"/>
<path transform="translate(1214,495)" d="m0 0h7l-1 6h-6z" fill="#F8F5F8"/>
<path transform="translate(1190,495)" d="m0 0h6v6l-5 1-1-1z" fill="#F8F5F8"/>
<path transform="translate(1117,495)" d="m0 0h6v6h-6l-1-5z" fill="#F8F5F8"/>
<path transform="translate(500,495)" d="m0 0h7l-1 6-5 1-1-1z" fill="#F8F5F8"/>
<path transform="translate(561,483)" d="m0 0h7v5l-1 1h-5l-1-1z" fill="#F8F5F8"/>
<path transform="translate(549,483)" d="m0 0h6l1 5-1 1h-6z" fill="#F8F5F8"/>
<path transform="translate(487,483)" d="m0 0h7v5l-1 1h-5l-1-1z" fill="#F8F5F8"/>
<path transform="translate(413,483)" d="m0 0h7v6h-6z" fill="#F8F5F8"/>
<path transform="translate(315,483)" d="m0 0h7v5l-1 1h-5l-1-1z" fill="#F8F5F8"/>
<path transform="translate(303,483)" d="m0 0h7v5l-7 1z" fill="#F8F5F8"/>
<path transform="translate(1141,471)" d="m0 0h6l1 5-1 1h-6l-1-4z" fill="#F8F5F8"/>
<path transform="translate(549,471)" d="m0 0h7v5l-1 1h-5l-1-1z" fill="#F8F5F8"/>
<path transform="translate(389,471)" d="m0 0h7v5l-1 1h-5l-1-1z" fill="#F8F5F8"/>
<path transform="translate(377,471)" d="m0 0h7v5l-1 1h-5l-1-1z" fill="#F8F5F8"/>
<path transform="translate(340,471)" d="m0 0h7v6l-7-1z" fill="#F8F5F8"/>
<path transform="translate(500,470)" d="m0 0 6 1v6h-5l-2-5z" fill="#F8F5F8"/>
<path transform="translate(512,458)" d="m0 0h6l1 5-1 1h-6z" fill="#F8F5F8"/>
<path transform="translate(317,458)" d="m0 0h5v6h-7v-5z" fill="#F8F5F8"/>
<path transform="translate(499,446)" d="m0 0h7v5l-1 1h-5l-1-1z" fill="#F8F5F8"/>
<path transform="translate(487,446)" d="m0 0h7v5l-1 1h-5l-1-1z" fill="#F8F5F8"/>
<path transform="translate(462,446)" d="m0 0h7v5l-1 1h-5l-1-1z" fill="#F8F5F8"/>
<path transform="translate(352,446)" d="m0 0h6l1 1v5h-6l-1-1z" fill="#F8F5F8"/>
<path transform="translate(340,446)" d="m0 0h6l1 5-1 1h-6z" fill="#F8F5F8"/>
<path transform="translate(586,434)" d="m0 0h6v6h-6l-1-5z" fill="#F8F5F8"/>
<path transform="translate(499,434)" d="m0 0h7v5l-1 1h-5l-1-1z" fill="#F8F5F8"/>
<path transform="translate(487,434)" d="m0 0h7v5l-1 1h-5l-1-1z" fill="#F8F5F8"/>
<path transform="translate(462,434)" d="m0 0h7v5l-1 1h-5l-1-1z" fill="#F8F5F8"/>
<path transform="translate(553,421)" d="m0 0 2 1v5l-1 1h-5l-1-5z" fill="#F8F5F8"/>
<path transform="translate(541,421)" d="m0 0 2 2-1 5h-5l-1-1v-5z" fill="#F8F5F8"/>
<path transform="translate(480,421)" d="m0 0 2 3-2 4h-5l-1-5z" fill="#F8F5F8"/>
<path transform="translate(514,421)" d="m0 0 4 1v6h-6l-1-4z" fill="#F8F5F8"/>
<path transform="translate(500,397)" d="m0 0h5l1 1v5h-7v-5z" fill="#F8F5F8"/>
<path transform="translate(1341,753)" d="m0 0h3v6h-7l-1-4z" fill="#F8F5F8"/>
<path transform="translate(417,753)" d="m0 0h3v6l-5 1-2-1v-5z" fill="#F8F5F8"/>
<path transform="translate(1352,753)" d="m0 0h4v6h-7v-5z" fill="#F8F5F8"/>
<path transform="translate(598,741)" d="m0 0h5l1 1v5h-6l-1-5z" fill="#F8F5F8"/>
<path transform="translate(490,741)" d="m0 0h4v6h-7v-5z" fill="#F8F5F8"/>
<path transform="translate(401,741)" d="m0 0h7l-1 6h-6z" fill="#F8F5F8"/>
<path transform="translate(329,741)" d="m0 0h5v6h-6l-1-5z" fill="#F8F5F8"/>
<path transform="translate(1363,740)" d="m0 0 5 1v5l-1 1h-5v-6z" fill="#F8F5F8"/>
<path transform="translate(1341,728)" d="m0 0 3 1v5l-5 1-2-1v-5z" fill="#F8F5F8"/>
<path transform="translate(505,728)" d="m0 0h1v6l-6 1-1-5z" fill="#F8F5F8"/>
<path transform="translate(487,729)" d="m0 0h7v5l-6 1-1-1z" fill="#F8F5F8"/>
<path transform="translate(475,729)" d="m0 0h7v5l-6 1-1-1z" fill="#F8F5F8"/>
<path transform="translate(450,729)" d="m0 0h7v5l-5 1-2-1z" fill="#F8F5F8"/>
<path transform="translate(328,729)" d="m0 0h6v6h-6l-1-4z" fill="#F8F5F8"/>
<path transform="translate(315,729)" d="m0 0h7v5l-1 1h-5z" fill="#F8F5F8"/>
<path transform="translate(1317,715)" d="m0 0 2 1v6h-6l-1-5z" fill="#F8F5F8"/>
<path transform="translate(561,716)" d="m0 0h6l1 4-1 2h-6z" fill="#F8F5F8"/>
<path transform="translate(389,716)" d="m0 0h7l-1 6h-6z" fill="#F8F5F8"/>
<path transform="translate(357,715)" d="m0 0 2 1-1 6h-6v-6z" fill="#F8F5F8"/>
<path transform="translate(318,716)" d="m0 0 4 1v5l-5 1-2-1 1-5z" fill="#F8F5F8"/>
<path transform="translate(598,704)" d="m0 0h6v6h-6l-1-5z" fill="#F8F5F8"/>
<path transform="translate(463,704)" d="m0 0h6v5l-1 1h-5l-1-5z" fill="#F8F5F8"/>
<path transform="translate(438,704)" d="m0 0h7v5l-5 1-2-1z" fill="#F8F5F8"/>
<path transform="translate(419,703)" d="m0 0h1v6l-5 1-2-2v-4z" fill="#F8F5F8"/>
<path transform="translate(1325,692)" d="m0 0h7v5l-6 1-1-1z" fill="#F8F5F8"/>
<path transform="translate(1239,692)" d="m0 0h7v5l-1 1h-5l-1-1z" fill="#F8F5F8"/>
<path transform="translate(1289,691)" d="m0 0h5l1 1v5h-7v-5z" fill="#F8F5F8"/>
<path transform="translate(476,691)" d="m0 0h6v6l-6 1-1-1v-5z" fill="#F8F5F8"/>
<path transform="translate(365,691)" d="m0 0h5l1 1v5h-6l-1-5z" fill="#F8F5F8"/>
<path transform="translate(353,691)" d="m0 0h5l1 1v5h-7v-5z" fill="#F8F5F8"/>
<path transform="translate(1313,679)" d="m0 0 7 1v5h-7z" fill="#F8F5F8"/>
<path transform="translate(1277,679)" d="m0 0h5l1 1v5h-6l-1-5z" fill="#F8F5F8"/>
<path transform="translate(1265,679)" d="m0 0h6v5l-1 1h-6v-5z" fill="#F8F5F8"/>
<path transform="translate(598,679)" d="m0 0 6 1v5l-1 1h-5z" fill="#F8F5F8"/>
<path transform="translate(549,679)" d="m0 0 7 1v5h-7z" fill="#F8F5F8"/>
<path transform="translate(537,679)" d="m0 0h5l1 1v5h-6l-1-5z" fill="#F8F5F8"/>
<path transform="translate(1239,667)" d="m0 0h7v5l-6 1-1-1z" fill="#F8F5F8"/>
<path transform="translate(1215,667)" d="m0 0h6v5l-1 1h-5l-1-5z" fill="#F8F5F8"/>
<path transform="translate(450,667)" d="m0 0h7l-1 6h-6z" fill="#F8F5F8"/>
<path transform="translate(401,667)" d="m0 0h7v5l-6 1-1-1z" fill="#F8F5F8"/>
<path transform="translate(328,667)" d="m0 0h7v5l-6 1-1-1z" fill="#F8F5F8"/>
<path transform="translate(1215,655)" d="m0 0h6v5l-1 1h-5l-1-5z" fill="#F8F5F8"/>
<path transform="translate(450,655)" d="m0 0h7l-1 6h-6z" fill="#F8F5F8"/>
<path transform="translate(438,655)" d="m0 0h7l-1 6h-6z" fill="#F8F5F8"/>
<path transform="translate(413,655)" d="m0 0h7v6l-7-1z" fill="#F8F5F8"/>
<path transform="translate(401,655)" d="m0 0h7v5l-6 1-1-1z" fill="#F8F5F8"/>
<path transform="translate(278,655)" d="m0 0h7v5l-6 1-1-1z" fill="#F8F5F8"/>
<path transform="translate(1379,642)" d="m0 0 2 1v5l-4 1-3-1v-5z" fill="#F8F5F8"/>
<path transform="translate(561,643)" d="m0 0h7v5l-6 1-1-1z" fill="#F8F5F8"/>
<path transform="translate(454,642)" d="m0 0h3v6l-2 1-5-1v-5z" fill="#F8F5F8"/>
<path transform="translate(377,642)" d="m0 0 7 1v5h-7l-1-5z" fill="#F8F5F8"/>
<path transform="translate(1289,642)" d="m0 0h5l1 1v5h-6l-1-5z" fill="#F8F5F8"/>
<path transform="translate(490,642)" d="m0 0h4v6h-7v-5z" fill="#F8F5F8"/>
<path transform="translate(388,631)" d="m0 0h8v5h-7z" fill="#F8F5F8"/>
<path transform="translate(1252,630)" d="m0 0h6v6h-6l-1-5z" fill="#F8F5F8"/>
<path transform="translate(316,630)" d="m0 0h6v6h-6l-1-5z" fill="#F8F5F8"/>
<path transform="translate(305,630)" d="m0 0h5v5l-1 1h-6v-5z" fill="#F8F5F8"/>
<path transform="translate(293,630)" d="m0 0h4v6h-7v-5z" fill="#F8F5F8"/>
<path transform="translate(1337,618)" d="m0 0h7v5l-1 1h-6z" fill="#F8F5F8"/>
<path transform="translate(1301,618)" d="m0 0h6v6h-6l-1-5z" fill="#F8F5F8"/>
<path transform="translate(1239,618)" d="m0 0h7v5l-6 1-1-1z" fill="#F8F5F8"/>
<path transform="translate(536,618)" d="m0 0h6l1 5-1 1h-5l-1-1z" fill="#F8F5F8"/>
<path transform="translate(315,618)" d="m0 0h7v5l-6 1-1-1z" fill="#F8F5F8"/>
<path transform="translate(1379,605)" d="m0 0 2 3-1 4h-6v-6z" fill="#F8F5F8"/>
<path transform="translate(536,606)" d="m0 0h6l1 5-1 1h-5l-1-1z" fill="#F8F5F8"/>
<path transform="translate(512,606)" d="m0 0h6v6h-6l-1-5z" fill="#F8F5F8"/>
<path transform="translate(1288,594)" d="m0 0h6l1 5-1 1h-5l-1-1z" fill="#F8F5F8"/>
<path transform="translate(588,593)" d="m0 0 4 2-1 5h-5l-1-1v-5z" fill="#F8F5F8"/>
<path transform="translate(536,594)" d="m0 0h6l1 5-1 1h-5l-1-1z" fill="#F8F5F8"/>
<path transform="translate(1276,569)" d="m0 0h6v6l-5 1-1-1z" fill="#F8F5F8"/>
<path transform="translate(524,569)" d="m0 0h6v6l-5 1-1-1z" fill="#F8F5F8"/>
<path transform="translate(1165,557)" d="m0 0h7v6l-7-1z" fill="#F8F5F8"/>
<path transform="translate(553,556)" d="m0 0 2 1v5l-6 1-1-6z" fill="#F8F5F8"/>
<path transform="translate(1362,556)" d="m0 0h6v7l-6-1z" fill="#F8F5F8"/>
<path transform="translate(577,544)" d="m0 0 3 1v5l-5 1-2-1v-5z" fill="#F8F5F8"/>
<path transform="translate(586,544)" d="m0 0h5v7l-6-1v-5z" fill="#F8F5F8"/>
<path transform="translate(1362,543)" d="m0 0 5 1 1 7h-6z" fill="#F8F5F8"/>
<path transform="translate(1313,532)" d="m0 0h6l1 5-1 1h-6z" fill="#F8F5F8"/>
<path transform="translate(1141,532)" d="m0 0h6l1 5-1 1h-5l-1-1z" fill="#F8F5F8"/>
<path transform="translate(501,531)" d="m0 0h5l1 2-1 5h-6v-6z" fill="#F8F5F8"/>
<path transform="translate(475,532)" d="m0 0h7v6h-7z" fill="#F8F5F8"/>
<path transform="translate(295,531)" d="m0 0 2 1v6h-6l-1-3 1-3z" fill="#F8F5F8"/>
<path transform="translate(271,531)" d="m0 0 2 2-1 5h-6l-1-2 1-4z" fill="#F8F5F8"/>
<path transform="translate(561,508)" d="m0 0h7v5l-6 1-1-1z" fill="#F8F5F8"/>
<path transform="translate(329,507)" d="m0 0h6v6h-7v-5z" fill="#F8F5F8"/>
<path transform="translate(1289,507)" d="m0 0h5l1 1v5h-6l-1-5z" fill="#F8F5F8"/>
<path transform="translate(1277,507)" d="m0 0h5l1 1v5h-6l-1-5z" fill="#F8F5F8"/>
<path transform="translate(1215,507)" d="m0 0h5l1 4-1 2-5 1-1-1v-5z" fill="#F8F5F8"/>
<path transform="translate(1190,507)" d="m0 0h6v7h-5l-1-1z" fill="#F8F5F8"/>
<path transform="translate(1154,507)" d="m0 0h6v6h-7v-5z" fill="#F8F5F8"/>
<path transform="translate(537,507)" d="m0 0h5l1 1v5h-6l-1-5z" fill="#F8F5F8"/>
<path transform="translate(278,507)" d="m0 0h7l-1 6h-6z" fill="#F8F5F8"/>
<path transform="translate(1313,495)" d="m0 0 6 1v6h-5l-1-1z" fill="#F8F5F8"/>
<path transform="translate(1105,495)" d="m0 0h5l1 1v5h-6l-1-5z" fill="#F8F5F8"/>
<path transform="translate(450,495)" d="m0 0h7l-1 6h-6z" fill="#F8F5F8"/>
<path transform="translate(413,495)" d="m0 0h7v6h-6z" fill="#F8F5F8"/>
<path transform="translate(291,495)" d="m0 0h6v6h-7z" fill="#F8F5F8"/>
<path transform="translate(1177,483)" d="m0 0h7v6h-6l-1-1z" fill="#F8F5F8"/>
<path transform="translate(1129,483)" d="m0 0h6v6h-6l-1-5z" fill="#F8F5F8"/>
<path transform="translate(573,483)" d="m0 0h6l1 5-1 1h-5l-1-1z" fill="#F8F5F8"/>
<path transform="translate(500,483)" d="m0 0h6l1 4-1 2h-6z" fill="#F8F5F8"/>
<path transform="translate(450,483)" d="m0 0h7l-1 6h-5l-1-1z" fill="#F8F5F8"/>
<path transform="translate(291,483)" d="m0 0h6v5l-1 1h-5l-1-5z" fill="#F8F5F8"/>
<path transform="translate(1177,471)" d="m0 0h7v6h-6l-1-1z" fill="#F8F5F8"/>
<path transform="translate(1165,471)" d="m0 0h7v5l-6 1-1-1z" fill="#F8F5F8"/>
<path transform="translate(1153,471)" d="m0 0h7v5l-6 1-1-1z" fill="#F8F5F8"/>
<path transform="translate(1117,471)" d="m0 0h6v5l-1 1h-5l-1-5z" fill="#F8F5F8"/>
<path transform="translate(561,471)" d="m0 0h7l-1 6h-5l-1-1z" fill="#F8F5F8"/>
<path transform="translate(468,470)" d="m0 0h1v6l-5 1-2-2v-4z" fill="#F8F5F8"/>
<path transform="translate(315,471)" d="m0 0h8l-1 5-6 1-1-1z" fill="#F8F5F8"/>
<path transform="translate(303,471)" d="m0 0h7v5l-7 1z" fill="#F8F5F8"/>
<path transform="translate(490,458)" d="m0 0h4v6h-7v-5z" fill="#F8F5F8"/>
<path transform="translate(586,446)" d="m0 0h6v5l-1 1h-5l-1-5z" fill="#F8F5F8"/>
<path transform="translate(524,446)" d="m0 0h6l1 5-1 1h-5l-1-1z" fill="#F8F5F8"/>
<path transform="translate(475,446)" d="m0 0h6l1 2-2 4h-5l-1-5z" fill="#F8F5F8"/>
<path transform="translate(524,434)" d="m0 0h6l1 5-1 1h-5l-1-1z" fill="#F8F5F8"/>
<path transform="translate(475,434)" d="m0 0h6l1 2-2 4h-5l-1-5z" fill="#F8F5F8"/>
<path transform="translate(561,422)" d="m0 0h6v6h-6l-1-5z" fill="#F8F5F8"/>
<path transform="translate(475,397)" d="m0 0h6v6h-6l-1-5z" fill="#F8F5F8"/>
<path transform="translate(454,753)" d="m0 0h3v6h-7v-5z" fill="#F8F5F8"/>
<path transform="translate(405,753)" d="m0 0h3v6h-7v-5z" fill="#F8F5F8"/>
<path transform="translate(475,741)" d="m0 0h7v5l-1 1h-6z" fill="#F8F5F8"/>
<path transform="translate(389,741)" d="m0 0h6l1 2-1 4h-6l-1-4z" fill="#F8F5F8"/>
<path transform="translate(377,741)" d="m0 0h6v5l-1 1h-5l-1-5z" fill="#F8F5F8"/>
<path transform="translate(1269,728)" d="m0 0h1v6l-1 1h-5l-1-4 1-2z" fill="#F8F5F8"/>
<path transform="translate(1252,729)" d="m0 0h6v5l-6 1-1-5z" fill="#F8F5F8"/>
<path transform="translate(463,729)" d="m0 0h6v5l-5 1-2-1z" fill="#F8F5F8"/>
<path transform="translate(438,729)" d="m0 0h7v5h-7l-1-4z" fill="#F8F5F8"/>
<path transform="translate(1362,728)" d="m0 0h6v6l-3 1-3-1z" fill="#F8F5F8"/>
<path transform="translate(401,728)" d="m0 0h6l1 5-1 1h-6z" fill="#F8F5F8"/>
<path transform="translate(1293,715)" d="m0 0 2 1-1 6h-6v-5z" fill="#F8F5F8"/>
<path transform="translate(1228,716)" d="m0 0h5v6l-4 1-2-1v-5z" fill="#F8F5F8"/>
<path transform="translate(345,715)" d="m0 0 2 2-1 5h-6v-6z" fill="#F8F5F8"/>
<path transform="translate(1374,704)" d="m0 0h7l-2 6h-5l-1-3z" fill="#F8F5F8"/>
<path transform="translate(1264,704)" d="m0 0h7l-1 6h-6z" fill="#F8F5F8"/>
<path transform="translate(1239,704)" d="m0 0h7v5l-1 1h-5l-1-1z" fill="#F8F5F8"/>
<path transform="translate(512,704)" d="m0 0h7v5l-6 1-1-1z" fill="#F8F5F8"/>
<path transform="translate(407,703)" d="m0 0h1v6l-6 1-1-1v-5z" fill="#F8F5F8"/>
<path transform="translate(340,704)" d="m0 0h7l-1 5-5 1-1-1z" fill="#F8F5F8"/>
<path transform="translate(1313,692)" d="m0 0h7v5l-5 1-2-1z" fill="#F8F5F8"/>
<path transform="translate(1252,692)" d="m0 0h6v6h-6l-1-3z" fill="#F8F5F8"/>
<path transform="translate(414,691)" d="m0 0h6v6l-3 1-3-1z" fill="#F8F5F8"/>
<path transform="translate(1289,679)" d="m0 0 6 1v5h-6l-1-5z" fill="#F8F5F8"/>
<path transform="translate(1215,679)" d="m0 0h6l-1 6h-6v-5z" fill="#F8F5F8"/>
<path transform="translate(488,679)" d="m0 0h6v6h-6l-1-5z" fill="#F8F5F8"/>
<path transform="translate(414,679)" d="m0 0h6v6h-6l-1-5z" fill="#F8F5F8"/>
<path transform="translate(365,679)" d="m0 0 6 1 1 2-1 3h-6l-1-5z" fill="#F8F5F8"/>
<path transform="translate(353,679)" d="m0 0 6 1v5h-6l-1-5z" fill="#F8F5F8"/>
<path transform="translate(438,667)" d="m0 0h7l-1 6h-6z" fill="#F8F5F8"/>
<path transform="translate(1301,655)" d="m0 0h6l1 5-5 1-3-3z" fill="#F8F5F8"/>
<path transform="translate(463,655)" d="m0 0h6v5l-5 1-2-1z" fill="#F8F5F8"/>
<path transform="translate(1367,642)" d="m0 0 2 2-1 5h-6v-6z" fill="#F8F5F8"/>
<path transform="translate(1325,643)" d="m0 0h7v5l-5 1-2-1z" fill="#F8F5F8"/>
<path transform="translate(1301,642)" d="m0 0 7 1-1 5h-6l-1-5z" fill="#F8F5F8"/>
<path transform="translate(1252,642)" d="m0 0h6v6h-6l-1-5z" fill="#F8F5F8"/>
<path transform="translate(585,643)" d="m0 0h7v5l-6 1-1-1z" fill="#F8F5F8"/>
<path transform="translate(389,642)" d="m0 0 7 1-1 5h-6l-1-5z" fill="#F8F5F8"/>
<path transform="translate(500,642)" d="m0 0h6v6h-6l-1-4z" fill="#F8F5F8"/>
<path transform="translate(353,642)" d="m0 0 6 1v5h-7v-5z" fill="#F8F5F8"/>
<path transform="translate(1386,631)" d="m0 0h7v5l-4 1-3-1z" fill="#F8F5F8"/>
<path transform="translate(1367,630)" d="m0 0 2 2-1 5h-6v-6z" fill="#F8F5F8"/>
<path transform="translate(573,631)" d="m0 0h7v5l-5 1-2-1z" fill="#F8F5F8"/>
<path transform="translate(561,631)" d="m0 0h7v5l-5 1-2-1z" fill="#F8F5F8"/>
<path transform="translate(478,630)" d="m0 0 4 1-1 5h-6l-1-5z" fill="#F8F5F8"/>
<path transform="translate(466,630)" d="m0 0h3v6h-7v-5z" fill="#F8F5F8"/>
<path transform="translate(455,630)" d="m0 0h2v6l-2 1-5-1v-5z" fill="#F8F5F8"/>
<path transform="translate(1264,630)" d="m0 0h6l1 5-1 1h-6z" fill="#F8F5F8"/>
<path transform="translate(328,630)" d="m0 0h6l1 5-1 1h-6z" fill="#F8F5F8"/>
<path transform="translate(1349,618)" d="m0 0h7v6h-6l-1-1z" fill="#F8F5F8"/>
<path transform="translate(1264,618)" d="m0 0h6v6h-6l-1-5z" fill="#F8F5F8"/>
<path transform="translate(1227,618)" d="m0 0h6v5l-1 1h-5l-1-5z" fill="#F8F5F8"/>
<path transform="translate(1276,606)" d="m0 0h6l1 5-1 1h-6l-1-4z" fill="#F8F5F8"/>
<path transform="translate(524,606)" d="m0 0h6l1 5-1 1h-6z" fill="#F8F5F8"/>
<path transform="translate(1232,593)" d="m0 0 2 3-2 4-5-1-1-4z" fill="#F8F5F8"/>
<path transform="translate(340,594)" d="m0 0h6v6h-6l-1-5z" fill="#F8F5F8"/>
<path transform="translate(1362,569)" d="m0 0h6v6h-6l-1-5z" fill="#F8F5F8"/>
<path transform="translate(1227,569)" d="m0 0h6v6h-6l-1-5z" fill="#F8F5F8"/>
<path transform="translate(549,569)" d="m0 0h5l1 1v5h-6l-1-5z" fill="#F8F5F8"/>
<path transform="translate(1227,557)" d="m0 0h6v6h-5l-2-2z" fill="#F8F5F8"/>
<path transform="translate(550,544)" d="m0 0 5 1v5h-6l-1-5z" fill="#F8F5F8"/>
<path transform="translate(1264,532)" d="m0 0h7l-1 6h-6z" fill="#F8F5F8"/>
<path transform="translate(1190,532)" d="m0 0h7l-1 6h-6z" fill="#F8F5F8"/>
<path transform="translate(443,531)" d="m0 0h1l1 6-1 1h-6v-6z" fill="#F8F5F8"/>
<path transform="translate(1316,507)" d="m0 0h3v7h-5l-1-1v-5z" fill="#F8F5F8"/>
<path transform="translate(1129,495)" d="m0 0h6v6h-6l-1-4z" fill="#F8F5F8"/>
<path transform="translate(1117,483)" d="m0 0h5l1 5-1 1h-5l-1-5z" fill="#F8F5F8"/>
<path transform="translate(438,483)" d="m0 0h7l-1 6h-6z" fill="#F8F5F8"/>
<path transform="translate(431,470)" d="m0 0 2 2-1 5h-6v-6z" fill="#F8F5F8"/>
<path transform="translate(352,471)" d="m0 0h7v6l-6-1z" fill="#F8F5F8"/>
<path transform="translate(376,459)" d="m0 0h8l-1 5h-6z" fill="#F8F5F8"/>
<path transform="translate(296,458)" d="m0 0 1 4-3 3h-4v-6z" fill="#F8F5F8"/>
<path transform="translate(574,446)" d="m0 0h6v6h-7v-5z" fill="#F8F5F8"/>
<path transform="translate(537,446)" d="m0 0h5l1 5-1 1h-5l-1-5z" fill="#F8F5F8"/>
<path transform="translate(537,434)" d="m0 0h5l1 5-1 1h-5l-1-5z" fill="#F8F5F8"/>
<path transform="translate(342,397)" d="m0 0h4v6h-6l-1-5z" fill="#F8F5F8"/>
<path transform="translate(612,753)" d="m0 0h4l1 5-1 1h-6l-1-5z" fill="#F8F5F8"/>
<path transform="translate(600,753)" d="m0 0 4 1v5h-6l-1-5z" fill="#F8F5F8"/>
<path transform="translate(588,753)" d="m0 0 4 1-1 5h-6v-5z" fill="#F8F5F8"/>
<path transform="translate(342,753)" d="m0 0h4v6h-6l-1-4z" fill="#F8F5F8"/>
<path transform="translate(502,741)" d="m0 0h4v6h-6l-1-4z" fill="#F8F5F8"/>
<path transform="translate(1214,729)" d="m0 0h7v5l-4 1-3-1z" fill="#F8F5F8"/>
<path transform="translate(610,728)" d="m0 0h6v6l-2 1-4-1z" fill="#F8F5F8"/>
<path transform="translate(1281,715)" d="m0 0h1v7h-6v-6z" fill="#F8F5F8"/>
<path transform="translate(1269,715)" d="m0 0h1v7h-6v-6z" fill="#F8F5F8"/>
<path transform="translate(610,716)" d="m0 0h6v6l-2 1-4-1z" fill="#F8F5F8"/>
<path transform="translate(598,716)" d="m0 0h6v6l-2 1-4-1z" fill="#F8F5F8"/>
<path transform="translate(500,716)" d="m0 0h6v6h-6l-1-2z" fill="#F8F5F8"/>
<path transform="translate(1350,704)" d="m0 0h6v6h-6l-1-3z" fill="#F8F5F8"/>
<path transform="translate(1325,704)" d="m0 0h7v5l-5 1-2-1z" fill="#F8F5F8"/>
<path transform="translate(1288,704)" d="m0 0h7v5l-5 1-2-1z" fill="#F8F5F8"/>
<path transform="translate(1215,704)" d="m0 0h5l1 5-1 1h-5l-1-5z" fill="#F8F5F8"/>
<path transform="translate(536,704)" d="m0 0h7v5l-5 1-2-1z" fill="#F8F5F8"/>
<path transform="translate(500,704)" d="m0 0h7l-1 6h-6z" fill="#F8F5F8"/>
<path transform="translate(475,704)" d="m0 0h6l1 5-1 1h-6z" fill="#F8F5F8"/>
<path transform="translate(431,703)" d="m0 0 2 2-1 5h-5l-1-1v-5z" fill="#F8F5F8"/>
<path transform="translate(389,704)" d="m0 0h7v5l-3 1-4-1z" fill="#F8F5F8"/>
<path transform="translate(352,704)" d="m0 0h7v5l-5 1-2-1z" fill="#F8F5F8"/>
<path transform="translate(1378,679)" d="m0 0h3v5l-1 1h-6v-5z" fill="#F8F5F8"/>
<path transform="translate(1362,667)" d="m0 0h7l-1 6h-6z" fill="#F8F5F8"/>
<path transform="translate(1350,667)" d="m0 0h6v6h-6l-1-5z" fill="#F8F5F8"/>
<path transform="translate(1289,667)" d="m0 0h6v5l-5 1-2-2z" fill="#F8F5F8"/>
<path transform="translate(488,667)" d="m0 0h6v5l-1 1h-5l-1-5z" fill="#F8F5F8"/>
<path transform="translate(426,667)" d="m0 0h7l-1 6h-6z" fill="#F8F5F8"/>
<path transform="translate(316,667)" d="m0 0h6v5l-6 1-1-5z" fill="#F8F5F8"/>
<path transform="translate(1362,655)" d="m0 0h7l-1 6h-6z" fill="#F8F5F8"/>
<path transform="translate(1350,655)" d="m0 0h6v6h-6l-1-5z" fill="#F8F5F8"/>
<path transform="translate(1288,655)" d="m0 0h7v5l-4 1-3-2z" fill="#F8F5F8"/>
<path transform="translate(1239,655)" d="m0 0h7l-1 5-5 1-1-1z" fill="#F8F5F8"/>
<path transform="translate(500,655)" d="m0 0h7l-1 6h-6z" fill="#F8F5F8"/>
<path transform="translate(487,655)" d="m0 0h7v5l-4 1-3-1z" fill="#F8F5F8"/>
<path transform="translate(291,655)" d="m0 0h6v5l-6 1-1-5z" fill="#F8F5F8"/>
<path transform="translate(1386,643)" d="m0 0h7v5l-3 1-4-1z" fill="#F8F5F8"/>
<path transform="translate(466,642)" d="m0 0h3v5l-1 1h-6v-5z" fill="#F8F5F8"/>
<path transform="translate(431,642)" d="m0 0 2 2-1 5-6-1-1-5z" fill="#F8F5F8"/>
<path transform="translate(419,642)" d="m0 0 2 2-1 4h-7v-5z" fill="#F8F5F8"/>
<path transform="translate(1242,642)" d="m0 0 4 1-1 5h-6v-5z" fill="#F8F5F8"/>
<path transform="translate(1349,631)" d="m0 0h7v5l-1 1h-5z" fill="#F8F5F8"/>
<path transform="translate(1337,631)" d="m0 0h7v5l-5 1-2-1z" fill="#F8F5F8"/>
<path transform="translate(1218,630)" d="m0 0h3v5l-1 1h-6v-5z" fill="#F8F5F8"/>
<path transform="translate(549,631)" d="m0 0h7l-1 5-4 1-2-1z" fill="#F8F5F8"/>
<path transform="translate(431,630)" d="m0 0 2 2-1 5-7-2v-4z" fill="#F8F5F8"/>
<path transform="translate(419,630)" d="m0 0 2 2-1 4h-7v-5z" fill="#F8F5F8"/>
<path transform="translate(407,630)" d="m0 0h1v6h-7l-1-5z" fill="#F8F5F8"/>
<path transform="translate(1242,630)" d="m0 0 4 1-1 5h-6v-5z" fill="#F8F5F8"/>
<path transform="translate(573,618)" d="m0 0h7v5l-1 1h-6z" fill="#F8F5F8"/>
<path transform="translate(1362,618)" d="m0 0h6l1 2-1 4h-6z" fill="#F8F5F8"/>
<path transform="translate(1177,618)" d="m0 0h7v5l-1 1h-5l-1-1z" fill="#F8F5F8"/>
<path transform="translate(512,618)" d="m0 0h6l1 2-1 4h-6z" fill="#F8F5F8"/>
<path transform="translate(589,605)" d="m0 0 3 3-1 4h-5l-1-1v-5z" fill="#F8F5F8"/>
<path transform="translate(586,569)" d="m0 0h5v6l-5 1-1-1v-5z" fill="#F8F5F8"/>
<path transform="translate(536,569)" d="m0 0h6l1 5-1 1h-6z" fill="#F8F5F8"/>
<path transform="translate(1281,556)" d="m0 0h1v7h-6v-6z" fill="#F8F5F8"/>
<path transform="translate(1227,545)" d="m0 0h6v6h-5l-2-4z" fill="#F8F5F8"/>
<path transform="translate(431,531)" d="m0 0h1v7h-6v-6z" fill="#F8F5F8"/>
<path transform="translate(1116,520)" d="m0 0h6l1 5-5 1-2-2z" fill="#F8F5F8"/>
<path transform="translate(271,519)" d="m0 0h1v7h-6v-6z" fill="#F8F5F8"/>
<path transform="translate(317,507)" d="m0 0h5v6h-7v-5z" fill="#F8F5F8"/>
<path transform="translate(293,507)" d="m0 0h4v6h-7l1-5z" fill="#F8F5F8"/>
<path transform="translate(1202,495)" d="m0 0h6v6l-5 1-1-1z" fill="#F8F5F8"/>
<path transform="translate(488,495)" d="m0 0h6v6h-6l-1-5z" fill="#F8F5F8"/>
<path transform="translate(463,495)" d="m0 0h6v6h-6l-1-3z" fill="#F8F5F8"/>
<path transform="translate(438,495)" d="m0 0h7l-1 6h-6z" fill="#F8F5F8"/>
<path transform="translate(279,495)" d="m0 0h6l-1 6-5 1-1-1v-5z" fill="#F8F5F8"/>
<path transform="translate(1190,483)" d="m0 0h6v6h-6l-1-5z" fill="#F8F5F8"/>
<path transform="translate(1141,483)" d="m0 0h6l1 5-1 1h-6z" fill="#F8F5F8"/>
<path transform="translate(1105,483)" d="m0 0h5l1 5-1 1h-5l-1-5z" fill="#F8F5F8"/>
<path transform="translate(573,459)" d="m0 0h7v5l-5 1-2-1z" fill="#F8F5F8"/>
<path transform="translate(466,458)" d="m0 0h3v6h-6l-1-5z" fill="#F8F5F8"/>
<path transform="translate(456,458)" d="m0 0h1v6l-3 1-4-1v-5z" fill="#F8F5F8"/>
<path transform="translate(443,458)" d="m0 0 2 1-1 5-3 1-3-1v-5z" fill="#F8F5F8"/>
<path transform="translate(419,458)" d="m0 0 2 2-1 4h-7v-5z" fill="#F8F5F8"/>
<path transform="translate(388,459)" d="m0 0h8v5h-7z" fill="#F8F5F8"/>
<path transform="translate(526,458)" d="m0 0 5 1v5h-7v-5z" fill="#F8F5F8"/>
<path transform="translate(342,458)" d="m0 0 5 1v5h-7v-5z" fill="#F8F5F8"/>
<path transform="translate(549,434)" d="m0 0 6 1v5h-6l-1-5z" fill="#F8F5F8"/>
<path transform="translate(623,752)" d="m0 0 4 1 1 6h-5l-1-1v-5z" fill="#F8F5F8"/>
<path transform="translate(1326,741)" d="m0 0h5v6h-6l-1-4z" fill="#F8F5F8"/>
<path transform="translate(1254,741)" d="m0 0h4v5l-1 1h-5l-1-4z" fill="#F8F5F8"/>
<path transform="translate(610,741)" d="m0 0h6v6h-6z" fill="#F8F5F8"/>
<path transform="translate(549,741)" d="m0 0h5l1 5-1 1h-5l-1-5z" fill="#F8F5F8"/>
<path transform="translate(1280,728)" d="m0 0h2v6l-5 1-1-1v-5z" fill="#F8F5F8"/>
<path transform="translate(577,728)" d="m0 0 3 1-2 6-5-1v-5z" fill="#F8F5F8"/>
<path transform="translate(425,729)" d="m0 0h8l-1 5h-7z" fill="#F8F5F8"/>
<path transform="translate(598,728)" d="m0 0 6 1v5l-3 1-3-1z" fill="#F8F5F8"/>
<path transform="translate(526,728)" d="m0 0h4v6l-4 1-2-1v-5z" fill="#F8F5F8"/>
<path transform="translate(1374,716)" d="m0 0h6v5l-4 2-2-1z" fill="#F8F5F8"/>
<path transform="translate(1362,716)" d="m0 0h6v6h-6z" fill="#F8F5F8"/>
<path transform="translate(549,716)" d="m0 0h6v6h-6z" fill="#F8F5F8"/>
<path transform="translate(524,716)" d="m0 0h6v6h-6z" fill="#F8F5F8"/>
<path transform="translate(512,716)" d="m0 0h6v6h-6z" fill="#F8F5F8"/>
<path transform="translate(377,716)" d="m0 0h6v6h-6z" fill="#F8F5F8"/>
<path transform="translate(304,716)" d="m0 0h5v7l-5-1-1-3z" fill="#F8F5F8"/>
<path transform="translate(1362,704)" d="m0 0h6v6h-6z" fill="#F8F5F8"/>
<path transform="translate(524,704)" d="m0 0h7v5l-5 1-2-1z" fill="#F8F5F8"/>
<path transform="translate(331,704)" d="m0 0 4 1-1 5h-6l-1-3 1-2z" fill="#F8F5F8"/>
<path transform="translate(1304,691)" d="m0 0 4 2-1 4h-6l-1-4z" fill="#F8F5F8"/>
<path transform="translate(1264,692)" d="m0 0h7l-2 6-5-1z" fill="#F8F5F8"/>
<path transform="translate(1231,691)" d="m0 0 2 1v5l-1 1h-5v-6z" fill="#F8F5F8"/>
<path transform="translate(598,692)" d="m0 0h6v6h-6z" fill="#F8F5F8"/>
<path transform="translate(501,691)" d="m0 0 5 1v6h-5l-1-1v-5z" fill="#F8F5F8"/>
<path transform="translate(328,692)" d="m0 0h7l-1 5-5 1-1-1z" fill="#F8F5F8"/>
<path transform="translate(292,691)" d="m0 0 5 1v5l-3 1-3-1v-5z" fill="#F8F5F8"/>
<path transform="translate(1343,679)" d="m0 0h1v6l-5 1-2-2v-4z" fill="#F8F5F8"/>
<path transform="translate(451,679)" d="m0 0h6l-1 6h-6v-5z" fill="#F8F5F8"/>
<path transform="translate(1362,679)" d="m0 0h6v6h-6z" fill="#F8F5F8"/>
<path transform="translate(475,679)" d="m0 0h6v6h-6z" fill="#F8F5F8"/>
<path transform="translate(438,679)" d="m0 0h6v6h-6z" fill="#F8F5F8"/>
<path transform="translate(426,679)" d="m0 0h6v6h-6z" fill="#F8F5F8"/>
<path transform="translate(1386,667)" d="m0 0h6v6h-6z" fill="#F8F5F8"/>
<path transform="translate(463,667)" d="m0 0h6v5l-1 1h-5l-1-3z" fill="#F8F5F8"/>
<path transform="translate(1390,655)" d="m0 0 3 1-1 5h-6v-5z" fill="#F8F5F8"/>
<path transform="translate(352,655)" d="m0 0h7v5l-2 1-5-1z" fill="#F8F5F8"/>
<path transform="translate(316,655)" d="m0 0h6v5l-5 1-2-1z" fill="#F8F5F8"/>
<path transform="translate(307,642)" d="m0 0 3 1-1 5h-6v-5z" fill="#F8F5F8"/>
<path transform="translate(364,631)" d="m0 0h8l-1 5h-6z" fill="#F8F5F8"/>
<path transform="translate(1374,618)" d="m0 0h6l1 5-1 1h-6z" fill="#F8F5F8"/>
<path transform="translate(1276,594)" d="m0 0h6v6h-6z" fill="#F8F5F8"/>
<path transform="translate(1227,532)" d="m0 0h6v6h-6z" fill="#F8F5F8"/>
<path transform="translate(1178,532)" d="m0 0h6v6h-6z" fill="#F8F5F8"/>
<path transform="translate(463,532)" d="m0 0h6v6h-6z" fill="#F8F5F8"/>
<path transform="translate(1129,520)" d="m0 0h6v6h-5l-2-5z" fill="#F8F5F8"/>
<path transform="translate(1264,507)" d="m0 0h6v6h-6z" fill="#F8F5F8"/>
<path transform="translate(1239,507)" d="m0 0h6v6h-6z" fill="#F8F5F8"/>
<path transform="translate(1227,507)" d="m0 0h6v6h-6z" fill="#F8F5F8"/>
<path transform="translate(1202,507)" d="m0 0h6v6h-6z" fill="#F8F5F8"/>
<path transform="translate(500,507)" d="m0 0h6v6h-6z" fill="#F8F5F8"/>
<path transform="translate(475,507)" d="m0 0h6v6h-6z" fill="#F8F5F8"/>
<path transform="translate(463,507)" d="m0 0h6v6h-6z" fill="#F8F5F8"/>
<path transform="translate(451,507)" d="m0 0h5l1 2-1 4h-6v-5z" fill="#F8F5F8"/>
<path transform="translate(426,507)" d="m0 0h6v6h-6z" fill="#F8F5F8"/>
<path transform="translate(414,507)" d="m0 0h6v6h-6z" fill="#F8F5F8"/>
<path transform="translate(1264,495)" d="m0 0h6v6h-6z" fill="#F8F5F8"/>
<path transform="translate(1252,495)" d="m0 0h6v5l-1 1h-5l-1-4z" fill="#F8F5F8"/>
<path transform="translate(475,495)" d="m0 0h6v6h-6z" fill="#F8F5F8"/>
<path transform="translate(426,495)" d="m0 0h6v6h-6z" fill="#F8F5F8"/>
<path transform="translate(537,483)" d="m0 0h6v6h-6z" fill="#F8F5F8"/>
<path transform="translate(463,483)" d="m0 0h6v5l-1 1h-5l-1-3z" fill="#F8F5F8"/>
<path transform="translate(426,483)" d="m0 0h6v6h-6z" fill="#F8F5F8"/>
<path transform="translate(431,458)" d="m0 0 2 2-1 4-4 1-2-1-1-5z" fill="#F8F5F8"/>
<path transform="translate(561,434)" d="m0 0 6 1 1 3-1 2h-6l-1-4z" fill="#F8F5F8"/>
<path transform="translate(1314,753)" d="m0 0 5 1-1 5h-5l-1-5z" fill="#F8F5F8"/>
<path transform="translate(525,753)" d="m0 0h5v6h-6v-5z" fill="#F8F5F8"/>
<path transform="translate(353,753)" d="m0 0h5v6h-6v-5z" fill="#F8F5F8"/>
<path transform="translate(329,753)" d="m0 0 5 1v5l-4 1-2-1v-5z" fill="#F8F5F8"/>
<path transform="translate(525,741)" d="m0 0h5v6h-6v-5z" fill="#F8F5F8"/>
<path transform="translate(513,741)" d="m0 0h5v6h-6v-5z" fill="#F8F5F8"/>
<path transform="translate(353,741)" d="m0 0h5v6h-6v-5z" fill="#F8F5F8"/>
<path transform="translate(341,741)" d="m0 0h5v6h-6v-5z" fill="#F8F5F8"/>
<path transform="translate(413,729)" d="m0 0h7v5h-7z" fill="#F8F5F8"/>
<path transform="translate(393,728)" d="m0 0 3 1-1 5h-6l-1-5z" fill="#F8F5F8"/>
<path transform="translate(320,704)" d="m0 0h2v6h-6l-1-4z" fill="#F8F5F8"/>
<path transform="translate(1301,704)" d="m0 0h6v5l-5 1-2-2z" fill="#F8F5F8"/>
<path transform="translate(1227,704)" d="m0 0h6v6h-5l-1-1z" fill="#F8F5F8"/>
<path transform="translate(376,704)" d="m0 0h8l-2 6-5-1z" fill="#F8F5F8"/>
<path transform="translate(304,704)" d="m0 0h5v6h-6v-5z" fill="#F8F5F8"/>
<path transform="translate(340,692)" d="m0 0h7v5h-7z" fill="#F8F5F8"/>
<path transform="translate(303,692)" d="m0 0h6v6h-5l-1-1z" fill="#F8F5F8"/>
<path transform="translate(1325,680)" d="m0 0h7v5h-7z" fill="#F8F5F8"/>
<path transform="translate(303,667)" d="m0 0h7v5l-5 1-2-1z" fill="#F8F5F8"/>
<path transform="translate(1350,643)" d="m0 0h6v5l-1 1h-5z" fill="#F8F5F8"/>
<path transform="translate(1313,643)" d="m0 0h7v5h-7z" fill="#F8F5F8"/>
<path transform="translate(1214,643)" d="m0 0h7v5h-7z" fill="#F8F5F8"/>
<path transform="translate(1206,642)" d="m0 0 3 1-1 5-5 1-1-1v-5z" fill="#F8F5F8"/>
<path transform="translate(401,643)" d="m0 0h7v5h-7z" fill="#F8F5F8"/>
<path transform="translate(475,642)" d="m0 0h6v6h-6z" fill="#F8F5F8"/>
<path transform="translate(1325,631)" d="m0 0h7v5h-7z" fill="#F8F5F8"/>
<path transform="translate(1207,630)" d="m0 0 2 1-1 5h-6v-5z" fill="#F8F5F8"/>
<path transform="translate(585,631)" d="m0 0h7l-2 6-5-1z" fill="#F8F5F8"/>
<path transform="translate(536,631)" d="m0 0h7v5l-2 1-5-2z" fill="#F8F5F8"/>
<path transform="translate(352,631)" d="m0 0h7v5h-7z" fill="#F8F5F8"/>
<path transform="translate(340,631)" d="m0 0h7v5h-7z" fill="#F8F5F8"/>
<path transform="translate(266,631)" d="m0 0h7v5h-7z" fill="#F8F5F8"/>
<path transform="translate(1386,618)" d="m0 0h5l1 1v5h-6z" fill="#F8F5F8"/>
<path transform="translate(1314,544)" d="m0 0h5v6h-6v-5z" fill="#F8F5F8"/>
<path transform="translate(1301,507)" d="m0 0 6 1v5l-3 1-3-1-1-5z" fill="#F8F5F8"/>
<path transform="translate(549,508)" d="m0 0h7v5h-7z" fill="#F8F5F8"/>
<path transform="translate(1252,507)" d="m0 0h6v5l-1 1h-5z" fill="#F8F5F8"/>
<path transform="translate(304,507)" d="m0 0h5v6h-6v-5z" fill="#F8F5F8"/>
<path transform="translate(1239,495)" d="m0 0h6v6h-5l-1-1z" fill="#F8F5F8"/>
<path transform="translate(1227,495)" d="m0 0h6v5l-1 1h-5z" fill="#F8F5F8"/>
<path transform="translate(1276,484)" d="m0 0h7v5h-7z" fill="#F8F5F8"/>
<path transform="translate(1264,483)" d="m0 0h6l1 5-6 1-1-1z" fill="#F8F5F8"/>
<path transform="translate(1214,483)" d="m0 0h6v6h-6z" fill="#F8F5F8"/>
<path transform="translate(475,483)" d="m0 0h6v6h-5l-1-1z" fill="#F8F5F8"/>
<path transform="translate(401,459)" d="m0 0h7v5h-7z" fill="#F8F5F8"/>
<path transform="translate(549,446)" d="m0 0 6 1v5h-6l-1-4z" fill="#F8F5F8"/>
<path transform="translate(307,433)" d="m0 0h2v7h-6l1-5z" fill="#F8F5F8"/>
<path transform="translate(1242,753)" d="m0 0h3l1 5-1 1h-5l-1-5z" fill="#F8F5F8"/>
<path transform="translate(1214,754)" d="m0 0h7v5h-6z" fill="#F8F5F8"/>
<path transform="translate(577,753)" d="m0 0 3 1-1 5h-6v-5z" fill="#F8F5F8"/>
<path transform="translate(467,753)" d="m0 0h2v6h-6l-1-4z" fill="#F8F5F8"/>
<path transform="translate(1278,753)" d="m0 0h4v6h-6v-5z" fill="#F8F5F8"/>
<path transform="translate(1254,753)" d="m0 0h3l1 5-1 1h-5l-1-4z" fill="#F8F5F8"/>
<path transform="translate(537,753)" d="m0 0h5v6h-5l-1-5z" fill="#F8F5F8"/>
<path transform="translate(513,753)" d="m0 0h5v6h-6v-5z" fill="#F8F5F8"/>
<path transform="translate(490,753)" d="m0 0h3l1 5-1 1h-5l-1-4z" fill="#F8F5F8"/>
<path transform="translate(365,753)" d="m0 0h5v6h-5l-1-5z" fill="#F8F5F8"/>
<path transform="translate(1313,741)" d="m0 0h5l1 5-1 1h-5l-1-4z" fill="#F8F5F8"/>
<path transform="translate(1289,741)" d="m0 0h5v6h-5l-1-5z" fill="#F8F5F8"/>
<path transform="translate(1266,741)" d="m0 0h3l1 5-1 1h-5l-1-4z" fill="#F8F5F8"/>
<path transform="translate(1228,741)" d="m0 0h5v6h-5l-1-5z" fill="#F8F5F8"/>
<path transform="translate(575,741)" d="m0 0 5 1-1 5h-6v-5z" fill="#F8F5F8"/>
<path transform="translate(537,741)" d="m0 0h5v6h-5l-1-5z" fill="#F8F5F8"/>
<path transform="translate(365,741)" d="m0 0h5v6h-5l-1-5z" fill="#F8F5F8"/>
<path transform="translate(1325,729)" d="m0 0h6v5l-5 1-1-1z" fill="#F8F5F8"/>
<path transform="translate(1240,729)" d="m0 0h5l1 5-6 1-1-5z" fill="#F8F5F8"/>
<path transform="translate(1227,729)" d="m0 0h6v5l-5 1-1-1z" fill="#F8F5F8"/>
<path transform="translate(517,728)" d="m0 0h1v6l-5 1-1-1v-5z" fill="#F8F5F8"/>
<path transform="translate(340,729)" d="m0 0h6v5l-5 1-1-1z" fill="#F8F5F8"/>
<path transform="translate(549,704)" d="m0 0h6l1 2-2 4-5-1z" fill="#F8F5F8"/>
<path transform="translate(364,704)" d="m0 0h7v5h-6z" fill="#F8F5F8"/>
<path transform="translate(463,692)" d="m0 0h6v5l-6 1z" fill="#F8F5F8"/>
<path transform="translate(1354,679)" d="m0 0h2v6l-5 1-2-3 1-3z" fill="#F8F5F8"/>
<path transform="translate(340,680)" d="m0 0h7v5h-6z" fill="#F8F5F8"/>
<path transform="translate(328,680)" d="m0 0h7l-1 5h-6z" fill="#F8F5F8"/>
<path transform="translate(316,680)" d="m0 0h6v5h-7z" fill="#F8F5F8"/>
<path transform="translate(1227,667)" d="m0 0h6v5l-5 1-1-1z" fill="#F8F5F8"/>
<path transform="translate(475,667)" d="m0 0h6v5l-5 1-1-1z" fill="#F8F5F8"/>
<path transform="translate(1252,655)" d="m0 0h6v5l-4 1-3-3z" fill="#F8F5F8"/>
<path transform="translate(1227,655)" d="m0 0h6v5l-5 1-1-1z" fill="#F8F5F8"/>
<path transform="translate(303,655)" d="m0 0h7l-1 5h-6z" fill="#F8F5F8"/>
<path transform="translate(328,643)" d="m0 0h7l-1 5h-6z" fill="#F8F5F8"/>
<path transform="translate(290,643)" d="m0 0h7l-1 5h-6z" fill="#F8F5F8"/>
<path transform="translate(1313,631)" d="m0 0h7l-1 5h-6z" fill="#F8F5F8"/>
<path transform="translate(1300,631)" d="m0 0h8l-1 5h-6z" fill="#F8F5F8"/>
<path transform="translate(1288,631)" d="m0 0h7v5h-6z" fill="#F8F5F8"/>
<path transform="translate(1229,630)" d="m0 0h4v6h-6v-5z" fill="#F8F5F8"/>
<path transform="translate(1116,508)" d="m0 0h7v5h-6z" fill="#F8F5F8"/>
<path transform="translate(1105,471)" d="m0 0h5l1 5-6 1-1-4z" fill="#F8F5F8"/>
<path transform="translate(537,471)" d="m0 0h6v5l-5 1-1-1z" fill="#F8F5F8"/>
<path transform="translate(480,470)" d="m0 0h1v6l-4 1-2-1v-5z" fill="#F8F5F8"/>
<path transform="translate(585,459)" d="m0 0h6v5l-5 1-1-1z" fill="#F8F5F8"/>
<path transform="translate(561,459)" d="m0 0h7l-1 5h-6z" fill="#F8F5F8"/>
<path transform="translate(364,459)" d="m0 0h7v5h-6z" fill="#F8F5F8"/>
<path transform="translate(352,459)" d="m0 0h7v5h-6z" fill="#F8F5F8"/>
<path transform="translate(478,458)" d="m0 0 4 1-1 5h-6v-5z" fill="#F8F5F8"/>
<path transform="translate(578,434)" d="m0 0 2 2-1 4h-6v-5z" fill="#F8F5F8"/>
<path transform="translate(536,410)" d="m0 0h6l1 5-4 1-3-1z" fill="#F8F5F8"/>
<path transform="translate(475,385)" d="m0 0 6 1v5h-6l-1-5z" fill="#F8F5F8"/>
<path transform="translate(1329,753)" d="m0 0h2v6h-6l-1-4z" fill="#F8F5F8"/>
<path transform="translate(1302,753)" d="m0 0h4l1 5-1 1h-5l-1-4z" fill="#F8F5F8"/>
<path transform="translate(1266,753)" d="m0 0h3l1 5-1 1h-5l-1-3z" fill="#F8F5F8"/>
<path transform="translate(549,753)" d="m0 0h5l1 5-1 1h-5l-1-4z" fill="#F8F5F8"/>
<path transform="translate(1206,741)" d="m0 0h2l1 3-1 3h-6v-5z" fill="#F8F5F8"/>
<path transform="translate(1301,741)" d="m0 0 5 1v5h-5l-1-5z" fill="#F8F5F8"/>
<path transform="translate(1277,741)" d="m0 0h5v5l-5 1-1-5z" fill="#F8F5F8"/>
<path transform="translate(562,741)" d="m0 0 5 1-1 5h-5v-5z" fill="#F8F5F8"/>
<path transform="translate(1293,728)" d="m0 0h1v6l-4 1-2-1v-5z" fill="#F8F5F8"/>
<path transform="translate(1203,729)" d="m0 0h5l1 5-5 1-2-1z" fill="#F8F5F8"/>
<path transform="translate(561,729)" d="m0 0h6v5l-4 1-2-1z" fill="#F8F5F8"/>
<path transform="translate(381,728)" d="m0 0 2 1v5h-6l-1-5z" fill="#F8F5F8"/>
<path transform="translate(1239,680)" d="m0 0h6l1 4-1 1h-6z" fill="#F8F5F8"/>
<path transform="translate(303,680)" d="m0 0h6l1 4-1 1h-6z" fill="#F8F5F8"/>
<path transform="translate(1252,667)" d="m0 0h6v5l-5 1-1-1z" fill="#F8F5F8"/>
<path transform="translate(291,667)" d="m0 0h6v5l-5 1-1-1z" fill="#F8F5F8"/>
<path transform="translate(475,655)" d="m0 0h6v5l-4 1-2-1z" fill="#F8F5F8"/>
<path transform="translate(1230,642)" d="m0 0h3v6h-6v-5z" fill="#F8F5F8"/>
<path transform="translate(315,643)" d="m0 0h7l-1 5h-5z" fill="#F8F5F8"/>
<path transform="translate(488,507)" d="m0 0 6 1v5h-6z" fill="#F8F5F8"/>
<path transform="translate(282,483)" d="m0 0 3 1-1 5h-6v-5z" fill="#F8F5F8"/>
<path transform="translate(1190,471)" d="m0 0h6l1 4-3 2h-4z" fill="#F8F5F8"/>
<path transform="translate(549,459)" d="m0 0h6l1 4-5 2-2-1z" fill="#F8F5F8"/>
<path transform="translate(306,458)" d="m0 0 4 1-2 5h-5v-5z" fill="#F8F5F8"/>
<path transform="translate(573,422)" d="m0 0 6 1v5h-5l-2-2z" fill="#F8F5F8"/>
<path transform="translate(478,753)" d="m0 0h3v6h-5l-1-5z" fill="#F8F5F8"/>
<path transform="translate(394,753)" d="m0 0 2 2-1 4h-6v-5z" fill="#F8F5F8"/>
<path transform="translate(1290,753)" d="m0 0 4 1v5h-5l-1-5z" fill="#F8F5F8"/>
<path transform="translate(502,753)" d="m0 0h3l1 6h-6v-5z" fill="#F8F5F8"/>
<path transform="translate(1242,741)" d="m0 0h3v6h-5l-1-5z" fill="#F8F5F8"/>
<path transform="translate(1301,729)" d="m0 0h5l1 4-4 2-3-3z" fill="#F8F5F8"/>
<path transform="translate(369,728)" d="m0 0 2 2-1 4-3 1-3-2 1-4z" fill="#F8F5F8"/>
<path transform="translate(357,728)" d="m0 0h1v6l-4 1-2-1 1-5z" fill="#F8F5F8"/>
<path transform="translate(1231,679)" d="m0 0h2v6h-6v-5z" fill="#F8F5F8"/>
<path transform="translate(463,679)" d="m0 0h6l-1 6h-5z" fill="#F8F5F8"/>
<path transform="translate(257,544)" d="m0 0h3l1 6-1 1h-5l1-6z" fill="#F8F5F8"/>
<path transform="translate(1104,520)" d="m0 0 4 1 2-1 1 5-4 1-3-1z" fill="#F8F5F8"/>
<path transform="translate(1129,508)" d="m0 0h6v5h-6l-1-4z" fill="#F8F5F8"/>
<path transform="translate(1202,483)" d="m0 0 6 1v5h-6z" fill="#F8F5F8"/>
<path transform="translate(586,471)" d="m0 0h5l-1 6-5-1z" fill="#F8F5F8"/>
<path transform="translate(1231,753)" d="m0 0 2 1v5h-5l-2-4z" fill="#F8F5F8"/>
<path transform="translate(1202,754)" d="m0 0h6l1 4-1 1h-6z" fill="#F8F5F8"/>
<path transform="translate(1314,729)" d="m0 0h5v5l-4 1-2-1z" fill="#F8F5F8"/>
<path transform="translate(549,729)" d="m0 0h5l1 4-2 2-4-1z" fill="#F8F5F8"/>
<path transform="translate(536,729)" d="m0 0h6v5l-4 1-2-2z" fill="#F8F5F8"/>
<path transform="translate(1257,679)" d="m0 0h1v6h-6v-5z" fill="#F8F5F8"/>
<path transform="translate(1190,631)" d="m0 0h6v5l-4 1-2-1z" fill="#F8F5F8"/>
<path transform="translate(1165,618)" d="m0 0 5 1 2 4-5 1-2-2z" fill="#F8F5F8"/>
<path transform="translate(1105,508)" d="m0 0h5l1 5h-7z" fill="#F8F5F8"/>
<path transform="translate(269,507)" d="m0 0h3v6l-5 1-1-3 1-3z" fill="#F8F5F8"/>
<path transform="translate(1251,483)" d="m0 0h7l-1 5-3 1-3-3z" fill="#F8F5F8"/>
<path transform="translate(1239,483)" d="m0 0h6l-1 5-4 1-1-1z" fill="#F8F5F8"/>
<path transform="translate(537,459)" d="m0 0h6v5h-6l-1-3z" fill="#F8F5F8"/>
<path transform="translate(565,753)" d="m0 0 2 1-1 5h-5v-5z" fill="#F8F5F8"/>
<path transform="translate(610,704)" d="m0 0h5v6h-5z" fill="#F8F5F8"/>
<path transform="translate(291,680)" d="m0 0h6v5h-6z" fill="#F8F5F8"/>
<path transform="translate(279,667)" d="m0 0h6v5h-6z" fill="#F8F5F8"/>
<path transform="translate(1203,655)" d="m0 0h5v6h-5z" fill="#F8F5F8"/>
<path transform="translate(267,643)" d="m0 0h6l-2 6h-4z" fill="#F8F5F8"/>
<path transform="translate(586,618)" d="m0 0 5 1v5h-5l-1-5z" fill="#F8F5F8"/>
<path transform="translate(1387,605)" d="m0 0 4 2 1 4-1 1h-5z" fill="#F8F5F8"/>
<path transform="translate(1227,483)" d="m0 0h5v6h-5z" fill="#F8F5F8"/>
<path transform="translate(1216,472)" d="m0 0 5 1-1 4h-6v-4z" fill="#F8F5F8"/>
<path transform="translate(1202,472)" d="m0 0h6v4l-5 1z" fill="#F8F5F8"/>
<path transform="translate(293,446)" d="m0 0h4v5l-1 1h-5l1-5z" fill="#F8F5F8"/>
<path transform="translate(378,753)" d="m0 0 4 1 1 4-1 1h-5v-5z" fill="#F8F5F8"/>
<path transform="translate(1204,667)" d="m0 0h4v6h-5v-5z" fill="#F8F5F8"/>
<path transform="translate(258,593)" d="m0 0 3 1-1 5-3 1-2-1 1-5z" fill="#F8F5F8"/>
<path transform="translate(317,741)" d="m0 0h4l1 5-5 1-1-5z" fill="#F8F5F8"/>
<path transform="translate(1129,532)" d="m0 0 7 1-1 4-6-2z" fill="#F8F5F8"/>
<path transform="translate(1288,484)" d="m0 0 6 1v4h-6z" fill="#F8F5F8"/>
<path transform="translate(586,483)" d="m0 0h4v6l-5-1z" fill="#F8F5F8"/>
<path transform="translate(280,471)" d="m0 0h4v5l-5 1v-5z" fill="#F8F5F8"/>
<path transform="translate(293,704)" d="m0 0 4 1-1 5-4-1-1-3z" fill="#F8F5F8"/>
<path transform="translate(437,375)" d="m0 0h8l-1 4h-6z" fill="#EFECEF"/>
<path transform="translate(1191,754)" d="m0 0 5 1-1 4-5-1z" fill="#F8F5F8"/>
</svg>
